<?xml version="1.0" encoding="UTF-8" standalone="no"?>
<!DOCTYPE svg PUBLIC "-//W3C//DTD SVG 1.1//EN"
 "http://www.w3.org/Graphics/SVG/1.1/DTD/svg11.dtd">
<!-- Generated by graphviz version 2.38.0 (20140413.2041)
 -->
<!-- Title: Tree Pages: 1 -->
<svg width="756pt" height="433pt"
 viewBox="0.00 0.00 756.00 433.00" xmlns="http://www.w3.org/2000/svg" xmlns:xlink="http://www.w3.org/1999/xlink">
<g id="graph0" class="graph" transform="scale(1 1) rotate(0) translate(4 429)">
<title>Tree</title>
<polygon fill="white" stroke="none" points="-4,4 -4,-429 752,-429 752,4 -4,4"/>
<!-- 0 -->
<g id="node1" class="node"><title>0</title>
<path fill="#e58139" fill-opacity="0.478431" stroke="black" d="M371,-425C371,-425 204,-425 204,-425 198,-425 192,-419 192,-413 192,-413 192,-354 192,-354 192,-348 198,-342 204,-342 204,-342 371,-342 371,-342 377,-342 383,-348 383,-354 383,-354 383,-413 383,-413 383,-419 377,-425 371,-425"/>
<text text-anchor="start" x="200" y="-409.8" font-family="Helvetica,sans-Serif" font-size="14.00">Uniformity of Cell Size ≤ 2.5</text>
<text text-anchor="start" x="250" y="-394.8" font-family="Helvetica,sans-Serif" font-size="14.00">gini = 0.451</text>
<text text-anchor="start" x="240" y="-379.8" font-family="Helvetica,sans-Serif" font-size="14.00">samples = 478</text>
<text text-anchor="start" x="230.5" y="-364.8" font-family="Helvetica,sans-Serif" font-size="14.00">value = [314, 164]</text>
<text text-anchor="start" x="258.5" y="-349.8" font-family="Helvetica,sans-Serif" font-size="14.00">class = 0</text>
</g>
<!-- 1 -->
<g id="node2" class="node"><title>1</title>
<path fill="#e58139" fill-opacity="0.976471" stroke="black" d="M247,-306C247,-306 146,-306 146,-306 140,-306 134,-300 134,-294 134,-294 134,-235 134,-235 134,-229 140,-223 146,-223 146,-223 247,-223 247,-223 253,-223 259,-229 259,-235 259,-235 259,-294 259,-294 259,-300 253,-306 247,-306"/>
<text text-anchor="start" x="142" y="-290.8" font-family="Helvetica,sans-Serif" font-size="14.00">Bare Nuclei ≤ 6.0</text>
<text text-anchor="start" x="159" y="-275.8" font-family="Helvetica,sans-Serif" font-size="14.00">gini = 0.047</text>
<text text-anchor="start" x="149" y="-260.8" font-family="Helvetica,sans-Serif" font-size="14.00">samples = 292</text>
<text text-anchor="start" x="148" y="-245.8" font-family="Helvetica,sans-Serif" font-size="14.00">value = [285, 7]</text>
<text text-anchor="start" x="167.5" y="-230.8" font-family="Helvetica,sans-Serif" font-size="14.00">class = 0</text>
</g>
<!-- 0&#45;&gt;1 -->
<g id="edge1" class="edge"><title>0&#45;&gt;1</title>
<path fill="none" stroke="black" d="M255.928,-341.907C248.94,-332.923 241.467,-323.315 234.261,-314.05"/>
<polygon fill="black" stroke="black" points="236.918,-311.766 228.016,-306.021 231.393,-316.063 236.918,-311.766"/>
<text text-anchor="middle" x="224.915" y="-327.128" font-family="Helvetica,sans-Serif" font-size="14.00">True</text>
</g>
<!-- 6 -->
<g id="node7" class="node"><title>6</title>
<path fill="#399de5" fill-opacity="0.815686" stroke="black" d="M470,-306C470,-306 289,-306 289,-306 283,-306 277,-300 277,-294 277,-294 277,-235 277,-235 277,-229 283,-223 289,-223 289,-223 470,-223 470,-223 476,-223 482,-229 482,-235 482,-235 482,-294 482,-294 482,-300 476,-306 470,-306"/>
<text text-anchor="start" x="285" y="-290.8" font-family="Helvetica,sans-Serif" font-size="14.00">Uniformity of Cell Shape ≤ 3.5</text>
<text text-anchor="start" x="342" y="-275.8" font-family="Helvetica,sans-Serif" font-size="14.00">gini = 0.263</text>
<text text-anchor="start" x="332" y="-260.8" font-family="Helvetica,sans-Serif" font-size="14.00">samples = 186</text>
<text text-anchor="start" x="326.5" y="-245.8" font-family="Helvetica,sans-Serif" font-size="14.00">value = [29, 157]</text>
<text text-anchor="start" x="350.5" y="-230.8" font-family="Helvetica,sans-Serif" font-size="14.00">class = 2</text>
</g>
<!-- 0&#45;&gt;6 -->
<g id="edge6" class="edge"><title>0&#45;&gt;6</title>
<path fill="none" stroke="black" d="M319.419,-341.907C326.484,-332.923 334.039,-323.315 341.324,-314.05"/>
<polygon fill="black" stroke="black" points="344.208,-316.045 347.637,-306.021 338.705,-311.718 344.208,-316.045"/>
<text text-anchor="middle" x="350.607" y="-327.144" font-family="Helvetica,sans-Serif" font-size="14.00">False</text>
</g>
<!-- 2 -->
<g id="node3" class="node"><title>2</title>
<path fill="#e58139" fill-opacity="0.992157" stroke="black" d="M121,-187C121,-187 20,-187 20,-187 14,-187 8,-181 8,-175 8,-175 8,-116 8,-116 8,-110 14,-104 20,-104 20,-104 121,-104 121,-104 127,-104 133,-110 133,-116 133,-116 133,-175 133,-175 133,-181 127,-187 121,-187"/>
<text text-anchor="start" x="16" y="-171.8" font-family="Helvetica,sans-Serif" font-size="14.00">Bare Nuclei ≤ 3.5</text>
<text text-anchor="start" x="33" y="-156.8" font-family="Helvetica,sans-Serif" font-size="14.00">gini = 0.014</text>
<text text-anchor="start" x="23" y="-141.8" font-family="Helvetica,sans-Serif" font-size="14.00">samples = 287</text>
<text text-anchor="start" x="22" y="-126.8" font-family="Helvetica,sans-Serif" font-size="14.00">value = [285, 2]</text>
<text text-anchor="start" x="41.5" y="-111.8" font-family="Helvetica,sans-Serif" font-size="14.00">class = 0</text>
</g>
<!-- 1&#45;&gt;2 -->
<g id="edge2" class="edge"><title>1&#45;&gt;2</title>
<path fill="none" stroke="black" d="M152.785,-222.907C142.719,-213.56 131.925,-203.538 121.577,-193.929"/>
<polygon fill="black" stroke="black" points="123.847,-191.261 114.138,-187.021 119.084,-196.39 123.847,-191.261"/>
</g>
<!-- 5 -->
<g id="node6" class="node"><title>5</title>
<path fill="#399de5" stroke="black" d="M236,-179.5C236,-179.5 163,-179.5 163,-179.5 157,-179.5 151,-173.5 151,-167.5 151,-167.5 151,-123.5 151,-123.5 151,-117.5 157,-111.5 163,-111.5 163,-111.5 236,-111.5 236,-111.5 242,-111.5 248,-117.5 248,-123.5 248,-123.5 248,-167.5 248,-167.5 248,-173.5 242,-179.5 236,-179.5"/>
<text text-anchor="start" x="170.5" y="-164.3" font-family="Helvetica,sans-Serif" font-size="14.00">gini = 0.0</text>
<text text-anchor="start" x="160" y="-149.3" font-family="Helvetica,sans-Serif" font-size="14.00">samples = 5</text>
<text text-anchor="start" x="159" y="-134.3" font-family="Helvetica,sans-Serif" font-size="14.00">value = [0, 5]</text>
<text text-anchor="start" x="170.5" y="-119.3" font-family="Helvetica,sans-Serif" font-size="14.00">class = 2</text>
</g>
<!-- 1&#45;&gt;5 -->
<g id="edge5" class="edge"><title>1&#45;&gt;5</title>
<path fill="none" stroke="black" d="M197.541,-222.907C197.815,-212.204 198.112,-200.615 198.39,-189.776"/>
<polygon fill="black" stroke="black" points="201.892,-189.753 198.65,-179.667 194.894,-189.574 201.892,-189.753"/>
</g>
<!-- 3 -->
<g id="node4" class="node"><title>3</title>
<path fill="#e58139" stroke="black" d="M101,-68C101,-68 12,-68 12,-68 6,-68 0,-62 0,-56 0,-56 0,-12 0,-12 0,-6 6,-0 12,-0 12,-0 101,-0 101,-0 107,-0 113,-6 113,-12 113,-12 113,-56 113,-56 113,-62 107,-68 101,-68"/>
<text text-anchor="start" x="27.5" y="-52.8" font-family="Helvetica,sans-Serif" font-size="14.00">gini = 0.0</text>
<text text-anchor="start" x="9" y="-37.8" font-family="Helvetica,sans-Serif" font-size="14.00">samples = 277</text>
<text text-anchor="start" x="8" y="-22.8" font-family="Helvetica,sans-Serif" font-size="14.00">value = [277, 0]</text>
<text text-anchor="start" x="27.5" y="-7.8" font-family="Helvetica,sans-Serif" font-size="14.00">class = 0</text>
</g>
<!-- 2&#45;&gt;3 -->
<g id="edge3" class="edge"><title>2&#45;&gt;3</title>
<path fill="none" stroke="black" d="M65.2869,-103.726C64.2257,-95.4263 63.1058,-86.6671 62.034,-78.2834"/>
<polygon fill="black" stroke="black" points="65.4975,-77.7749 60.7575,-68.2996 58.554,-78.6628 65.4975,-77.7749"/>
</g>
<!-- 4 -->
<g id="node5" class="node"><title>4</title>
<path fill="#e58139" fill-opacity="0.749020" stroke="black" d="M222,-68C222,-68 143,-68 143,-68 137,-68 131,-62 131,-56 131,-56 131,-12 131,-12 131,-6 137,-0 143,-0 143,-0 222,-0 222,-0 228,-0 234,-6 234,-12 234,-12 234,-56 234,-56 234,-62 228,-68 222,-68"/>
<text text-anchor="start" x="149" y="-52.8" font-family="Helvetica,sans-Serif" font-size="14.00">gini = 0.32</text>
<text text-anchor="start" x="139" y="-37.8" font-family="Helvetica,sans-Serif" font-size="14.00">samples = 10</text>
<text text-anchor="start" x="142" y="-22.8" font-family="Helvetica,sans-Serif" font-size="14.00">value = [8, 2]</text>
<text text-anchor="start" x="153.5" y="-7.8" font-family="Helvetica,sans-Serif" font-size="14.00">class = 0</text>
</g>
<!-- 2&#45;&gt;4 -->
<g id="edge4" class="edge"><title>2&#45;&gt;4</title>
<path fill="none" stroke="black" d="M112.205,-103.726C121.627,-94.5142 131.628,-84.7364 141.04,-75.5343"/>
<polygon fill="black" stroke="black" points="143.736,-77.7931 148.44,-68.2996 138.843,-72.7878 143.736,-77.7931"/>
</g>
<!-- 7 -->
<g id="node8" class="node"><title>7</title>
<path fill="#e58139" fill-opacity="0.141176" stroke="black" d="M440.5,-187C440.5,-187 308.5,-187 308.5,-187 302.5,-187 296.5,-181 296.5,-175 296.5,-175 296.5,-116 296.5,-116 296.5,-110 302.5,-104 308.5,-104 308.5,-104 440.5,-104 440.5,-104 446.5,-104 452.5,-110 452.5,-116 452.5,-116 452.5,-175 452.5,-175 452.5,-181 446.5,-187 440.5,-187"/>
<text text-anchor="start" x="304.5" y="-171.8" font-family="Helvetica,sans-Serif" font-size="14.00">Bland Chromatin ≤ 3.5</text>
<text text-anchor="start" x="337" y="-156.8" font-family="Helvetica,sans-Serif" font-size="14.00">gini = 0.497</text>
<text text-anchor="start" x="331" y="-141.8" font-family="Helvetica,sans-Serif" font-size="14.00">samples = 39</text>
<text text-anchor="start" x="326" y="-126.8" font-family="Helvetica,sans-Serif" font-size="14.00">value = [21, 18]</text>
<text text-anchor="start" x="345.5" y="-111.8" font-family="Helvetica,sans-Serif" font-size="14.00">class = 0</text>
</g>
<!-- 6&#45;&gt;7 -->
<g id="edge7" class="edge"><title>6&#45;&gt;7</title>
<path fill="none" stroke="black" d="M377.765,-222.907C377.408,-214.558 377.029,-205.671 376.659,-197.02"/>
<polygon fill="black" stroke="black" points="380.156,-196.862 376.232,-187.021 373.162,-197.161 380.156,-196.862"/>
</g>
<!-- 10 -->
<g id="node11" class="node"><title>10</title>
<path fill="#399de5" fill-opacity="0.941176" stroke="black" d="M650,-187C650,-187 483,-187 483,-187 477,-187 471,-181 471,-175 471,-175 471,-116 471,-116 471,-110 477,-104 483,-104 483,-104 650,-104 650,-104 656,-104 662,-110 662,-116 662,-116 662,-175 662,-175 662,-181 656,-187 650,-187"/>
<text text-anchor="start" x="479" y="-171.8" font-family="Helvetica,sans-Serif" font-size="14.00">Uniformity of Cell Size ≤ 4.5</text>
<text text-anchor="start" x="529" y="-156.8" font-family="Helvetica,sans-Serif" font-size="14.00">gini = 0.103</text>
<text text-anchor="start" x="519" y="-141.8" font-family="Helvetica,sans-Serif" font-size="14.00">samples = 147</text>
<text text-anchor="start" x="518" y="-126.8" font-family="Helvetica,sans-Serif" font-size="14.00">value = [8, 139]</text>
<text text-anchor="start" x="537.5" y="-111.8" font-family="Helvetica,sans-Serif" font-size="14.00">class = 2</text>
</g>
<!-- 6&#45;&gt;10 -->
<g id="edge10" class="edge"><title>6&#45;&gt;10</title>
<path fill="none" stroke="black" d="M444.379,-222.907C460.044,-213.106 476.895,-202.563 492.927,-192.533"/>
<polygon fill="black" stroke="black" points="495.115,-195.292 501.736,-187.021 491.402,-189.358 495.115,-195.292"/>
</g>
<!-- 8 -->
<g id="node9" class="node"><title>8</title>
<path fill="#e58139" fill-opacity="0.890196" stroke="black" d="M354,-68C354,-68 273,-68 273,-68 267,-68 261,-62 261,-56 261,-56 261,-12 261,-12 261,-6 267,-0 273,-0 273,-0 354,-0 354,-0 360,-0 366,-6 366,-12 366,-12 366,-56 366,-56 366,-62 360,-68 354,-68"/>
<text text-anchor="start" x="280" y="-52.8" font-family="Helvetica,sans-Serif" font-size="14.00">gini = 0.18</text>
<text text-anchor="start" x="270" y="-37.8" font-family="Helvetica,sans-Serif" font-size="14.00">samples = 20</text>
<text text-anchor="start" x="269" y="-22.8" font-family="Helvetica,sans-Serif" font-size="14.00">value = [18, 2]</text>
<text text-anchor="start" x="284.5" y="-7.8" font-family="Helvetica,sans-Serif" font-size="14.00">class = 0</text>
</g>
<!-- 7&#45;&gt;8 -->
<g id="edge8" class="edge"><title>7&#45;&gt;8</title>
<path fill="none" stroke="black" d="M351.786,-103.726C346.959,-95.0615 341.853,-85.8962 336.998,-77.1802"/>
<polygon fill="black" stroke="black" points="339.975,-75.3322 332.05,-68.2996 333.86,-78.7389 339.975,-75.3322"/>
</g>
<!-- 9 -->
<g id="node10" class="node"><title>9</title>
<path fill="#399de5" fill-opacity="0.811765" stroke="black" d="M477,-68C477,-68 396,-68 396,-68 390,-68 384,-62 384,-56 384,-56 384,-12 384,-12 384,-6 390,-0 396,-0 396,-0 477,-0 477,-0 483,-0 489,-6 489,-12 489,-12 489,-56 489,-56 489,-62 483,-68 477,-68"/>
<text text-anchor="start" x="399" y="-52.8" font-family="Helvetica,sans-Serif" font-size="14.00">gini = 0.266</text>
<text text-anchor="start" x="393" y="-37.8" font-family="Helvetica,sans-Serif" font-size="14.00">samples = 19</text>
<text text-anchor="start" x="392" y="-22.8" font-family="Helvetica,sans-Serif" font-size="14.00">value = [3, 16]</text>
<text text-anchor="start" x="407.5" y="-7.8" font-family="Helvetica,sans-Serif" font-size="14.00">class = 2</text>
</g>
<!-- 7&#45;&gt;9 -->
<g id="edge9" class="edge"><title>7&#45;&gt;9</title>
<path fill="none" stroke="black" d="M397.587,-103.726C402.493,-95.0615 407.682,-85.8962 412.617,-77.1802"/>
<polygon fill="black" stroke="black" points="415.764,-78.726 417.645,-68.2996 409.673,-75.277 415.764,-78.726"/>
</g>
<!-- 11 -->
<g id="node12" class="node"><title>11</title>
<path fill="#399de5" fill-opacity="0.760784" stroke="black" d="M605,-68C605,-68 524,-68 524,-68 518,-68 512,-62 512,-56 512,-56 512,-12 512,-12 512,-6 518,-0 524,-0 524,-0 605,-0 605,-0 611,-0 617,-6 617,-12 617,-12 617,-56 617,-56 617,-62 611,-68 605,-68"/>
<text text-anchor="start" x="527" y="-52.8" font-family="Helvetica,sans-Serif" font-size="14.00">gini = 0.312</text>
<text text-anchor="start" x="521" y="-37.8" font-family="Helvetica,sans-Serif" font-size="14.00">samples = 31</text>
<text text-anchor="start" x="520" y="-22.8" font-family="Helvetica,sans-Serif" font-size="14.00">value = [6, 25]</text>
<text text-anchor="start" x="535.5" y="-7.8" font-family="Helvetica,sans-Serif" font-size="14.00">class = 2</text>
</g>
<!-- 10&#45;&gt;11 -->
<g id="edge11" class="edge"><title>10&#45;&gt;11</title>
<path fill="none" stroke="black" d="M565.755,-103.726C565.605,-95.5175 565.447,-86.8595 565.296,-78.56"/>
<polygon fill="black" stroke="black" points="568.79,-78.234 565.108,-68.2996 561.792,-78.3619 568.79,-78.234"/>
</g>
<!-- 12 -->
<g id="node13" class="node"><title>12</title>
<path fill="#399de5" fill-opacity="0.984314" stroke="black" d="M736,-68C736,-68 647,-68 647,-68 641,-68 635,-62 635,-56 635,-56 635,-12 635,-12 635,-6 641,-0 647,-0 647,-0 736,-0 736,-0 742,-0 748,-6 748,-12 748,-12 748,-56 748,-56 748,-62 742,-68 736,-68"/>
<text text-anchor="start" x="654" y="-52.8" font-family="Helvetica,sans-Serif" font-size="14.00">gini = 0.034</text>
<text text-anchor="start" x="644" y="-37.8" font-family="Helvetica,sans-Serif" font-size="14.00">samples = 116</text>
<text text-anchor="start" x="643" y="-22.8" font-family="Helvetica,sans-Serif" font-size="14.00">value = [2, 114]</text>
<text text-anchor="start" x="662.5" y="-7.8" font-family="Helvetica,sans-Serif" font-size="14.00">class = 2</text>
</g>
<!-- 10&#45;&gt;12 -->
<g id="edge12" class="edge"><title>10&#45;&gt;12</title>
<path fill="none" stroke="black" d="M613.045,-103.726C623.77,-94.3318 635.166,-84.349 645.851,-74.9883"/>
<polygon fill="black" stroke="black" points="648.271,-77.5217 653.487,-68.2996 643.658,-72.2562 648.271,-77.5217"/>
</g>
</g>
</svg>
