<?xml version="1.0" encoding="UTF-8" standalone="no"?>
<!DOCTYPE svg PUBLIC "-//W3C//DTD SVG 1.1//EN"
 "http://www.w3.org/Graphics/SVG/1.1/DTD/svg11.dtd">
<!-- Generated by graphviz version 2.40.1 (20161225.0304)
 -->
<!-- Title: Tree Pages: 1 -->
<svg width="2057pt" height="1098pt"
 viewBox="0.00 0.00 2057.34 1098.00" xmlns="http://www.w3.org/2000/svg" xmlns:xlink="http://www.w3.org/1999/xlink">
<g id="graph0" class="graph" transform="scale(1 1) rotate(0) translate(4 1094)">
<title>Tree</title>
<polygon fill="#ffffff" stroke="transparent" points="-4,4 -4,-1094 2053.3408,-1094 2053.3408,4 -4,4"/>
<!-- 0 -->
<g id="node1" class="node">
<title>0</title>
<path fill="#e58139" fill-opacity="0.462745" stroke="#000000" d="M828.1918,-1090C828.1918,-1090 663.9352,-1090 663.9352,-1090 657.9352,-1090 651.9352,-1084 651.9352,-1078 651.9352,-1078 651.9352,-1024 651.9352,-1024 651.9352,-1018 657.9352,-1012 663.9352,-1012 663.9352,-1012 828.1918,-1012 828.1918,-1012 834.1918,-1012 840.1918,-1018 840.1918,-1024 840.1918,-1024 840.1918,-1078 840.1918,-1078 840.1918,-1084 834.1918,-1090 828.1918,-1090"/>
<text text-anchor="start" x="659.7495" y="-1074.8" font-family="Helvetica,sans-Serif" font-size="14.00" fill="#000000">Uniformity of Cell Size ≤ 2.5</text>
<text text-anchor="start" x="709.6724" y="-1060.8" font-family="Helvetica,sans-Serif" font-size="14.00" fill="#000000">gini = 0.455</text>
<text text-anchor="start" x="700.3413" y="-1046.8" font-family="Helvetica,sans-Serif" font-size="14.00" fill="#000000">samples = 683</text>
<text text-anchor="start" x="690.2139" y="-1032.8" font-family="Helvetica,sans-Serif" font-size="14.00" fill="#000000">value = [444, 239]</text>
<text text-anchor="start" x="718.2446" y="-1018.8" font-family="Helvetica,sans-Serif" font-size="14.00" fill="#000000">class = 0</text>
</g>
<!-- 1 -->
<g id="node2" class="node">
<title>1</title>
<path fill="#e58139" fill-opacity="0.968627" stroke="#000000" d="M679.8539,-976C679.8539,-976 580.2731,-976 580.2731,-976 574.2731,-976 568.2731,-970 568.2731,-964 568.2731,-964 568.2731,-910 568.2731,-910 568.2731,-904 574.2731,-898 580.2731,-898 580.2731,-898 679.8539,-898 679.8539,-898 685.8539,-898 691.8539,-904 691.8539,-910 691.8539,-910 691.8539,-964 691.8539,-964 691.8539,-970 685.8539,-976 679.8539,-976"/>
<text text-anchor="start" x="576.4185" y="-960.8" font-family="Helvetica,sans-Serif" font-size="14.00" fill="#000000">Bare Nuclei ≤ 5.5</text>
<text text-anchor="start" x="593.6724" y="-946.8" font-family="Helvetica,sans-Serif" font-size="14.00" fill="#000000">gini = 0.056</text>
<text text-anchor="start" x="584.3413" y="-932.8" font-family="Helvetica,sans-Serif" font-size="14.00" fill="#000000">samples = 418</text>
<text text-anchor="start" x="578.1069" y="-918.8" font-family="Helvetica,sans-Serif" font-size="14.00" fill="#000000">value = [406, 12]</text>
<text text-anchor="start" x="602.2446" y="-904.8" font-family="Helvetica,sans-Serif" font-size="14.00" fill="#000000">class = 0</text>
</g>
<!-- 0&#45;&gt;1 -->
<g id="edge1" class="edge">
<title>0&#45;&gt;1</title>
<path fill="none" stroke="#000000" d="M706.1429,-1011.7677C696.8469,-1002.632 686.8625,-992.8198 677.2846,-983.407"/>
<polygon fill="#000000" stroke="#000000" points="679.6433,-980.8177 670.0577,-976.3046 674.7367,-985.8103 679.6433,-980.8177"/>
<text text-anchor="middle" x="670.2751" y="-997.1037" font-family="Helvetica,sans-Serif" font-size="14.00" fill="#000000">True</text>
</g>
<!-- 16 -->
<g id="node17" class="node">
<title>16</title>
<path fill="#399de5" fill-opacity="0.831373" stroke="#000000" d="M981.9395,-976C981.9395,-976 804.1875,-976 804.1875,-976 798.1875,-976 792.1875,-970 792.1875,-964 792.1875,-964 792.1875,-910 792.1875,-910 792.1875,-904 798.1875,-898 804.1875,-898 804.1875,-898 981.9395,-898 981.9395,-898 987.9395,-898 993.9395,-904 993.9395,-910 993.9395,-910 993.9395,-964 993.9395,-964 993.9395,-970 987.9395,-976 981.9395,-976"/>
<text text-anchor="start" x="800.1255" y="-960.8" font-family="Helvetica,sans-Serif" font-size="14.00" fill="#000000">Uniformity of Cell Shape ≤ 2.5</text>
<text text-anchor="start" x="856.6724" y="-946.8" font-family="Helvetica,sans-Serif" font-size="14.00" fill="#000000">gini = 0.246</text>
<text text-anchor="start" x="847.3413" y="-932.8" font-family="Helvetica,sans-Serif" font-size="14.00" fill="#000000">samples = 265</text>
<text text-anchor="start" x="841.1069" y="-918.8" font-family="Helvetica,sans-Serif" font-size="14.00" fill="#000000">value = [38, 227]</text>
<text text-anchor="start" x="865.2446" y="-904.8" font-family="Helvetica,sans-Serif" font-size="14.00" fill="#000000">class = 2</text>
</g>
<!-- 0&#45;&gt;16 -->
<g id="edge16" class="edge">
<title>0&#45;&gt;16</title>
<path fill="none" stroke="#000000" d="M796.6525,-1011.7677C808.7792,-1002.3633 821.8304,-992.242 834.2925,-982.5775"/>
<polygon fill="#000000" stroke="#000000" points="836.6238,-985.1987 842.3812,-976.3046 832.3341,-979.6671 836.6238,-985.1987"/>
<text text-anchor="middle" x="839.2452" y="-996.9072" font-family="Helvetica,sans-Serif" font-size="14.00" fill="#000000">False</text>
</g>
<!-- 2 -->
<g id="node3" class="node">
<title>2</title>
<path fill="#e58139" fill-opacity="0.988235" stroke="#000000" d="M496.1074,-862C496.1074,-862 362.0195,-862 362.0195,-862 356.0195,-862 350.0195,-856 350.0195,-850 350.0195,-850 350.0195,-796 350.0195,-796 350.0195,-790 356.0195,-784 362.0195,-784 362.0195,-784 496.1074,-784 496.1074,-784 502.1074,-784 508.1074,-790 508.1074,-796 508.1074,-796 508.1074,-850 508.1074,-850 508.1074,-856 502.1074,-862 496.1074,-862"/>
<text text-anchor="start" x="358.0415" y="-846.8" font-family="Helvetica,sans-Serif" font-size="14.00" fill="#000000">Clump Thickness ≤ 6.5</text>
<text text-anchor="start" x="392.6724" y="-832.8" font-family="Helvetica,sans-Serif" font-size="14.00" fill="#000000">gini = 0.024</text>
<text text-anchor="start" x="383.3413" y="-818.8" font-family="Helvetica,sans-Serif" font-size="14.00" fill="#000000">samples = 410</text>
<text text-anchor="start" x="381" y="-804.8" font-family="Helvetica,sans-Serif" font-size="14.00" fill="#000000">value = [405, 5]</text>
<text text-anchor="start" x="401.2446" y="-790.8" font-family="Helvetica,sans-Serif" font-size="14.00" fill="#000000">class = 0</text>
</g>
<!-- 1&#45;&gt;2 -->
<g id="edge2" class="edge">
<title>1&#45;&gt;2</title>
<path fill="none" stroke="#000000" d="M568.3909,-902.0215C548.9897,-891.0178 527.3072,-878.7203 506.9336,-867.1651"/>
<polygon fill="#000000" stroke="#000000" points="508.4114,-863.9796 497.9864,-862.0906 504.958,-870.0685 508.4114,-863.9796"/>
</g>
<!-- 13 -->
<g id="node14" class="node">
<title>13</title>
<path fill="#399de5" fill-opacity="0.858824" stroke="#000000" d="M697.1074,-862C697.1074,-862 563.0195,-862 563.0195,-862 557.0195,-862 551.0195,-856 551.0195,-850 551.0195,-850 551.0195,-796 551.0195,-796 551.0195,-790 557.0195,-784 563.0195,-784 563.0195,-784 697.1074,-784 697.1074,-784 703.1074,-784 709.1074,-790 709.1074,-796 709.1074,-796 709.1074,-850 709.1074,-850 709.1074,-856 703.1074,-862 697.1074,-862"/>
<text text-anchor="start" x="559.0415" y="-846.8" font-family="Helvetica,sans-Serif" font-size="14.00" fill="#000000">Clump Thickness ≤ 2.5</text>
<text text-anchor="start" x="593.6724" y="-832.8" font-family="Helvetica,sans-Serif" font-size="14.00" fill="#000000">gini = 0.219</text>
<text text-anchor="start" x="592.1274" y="-818.8" font-family="Helvetica,sans-Serif" font-size="14.00" fill="#000000">samples = 8</text>
<text text-anchor="start" x="589.7861" y="-804.8" font-family="Helvetica,sans-Serif" font-size="14.00" fill="#000000">value = [1, 7]</text>
<text text-anchor="start" x="602.2446" y="-790.8" font-family="Helvetica,sans-Serif" font-size="14.00" fill="#000000">class = 2</text>
</g>
<!-- 1&#45;&gt;13 -->
<g id="edge13" class="edge">
<title>1&#45;&gt;13</title>
<path fill="none" stroke="#000000" d="M630.0635,-897.7677C630.0635,-889.6172 630.0635,-880.9283 630.0635,-872.4649"/>
<polygon fill="#000000" stroke="#000000" points="633.5636,-872.3046 630.0635,-862.3046 626.5636,-872.3047 633.5636,-872.3046"/>
</g>
<!-- 3 -->
<g id="node4" class="node">
<title>3</title>
<path fill="#e58139" fill-opacity="0.996078" stroke="#000000" d="M321.7952,-748C321.7952,-748 196.3318,-748 196.3318,-748 190.3318,-748 184.3318,-742 184.3318,-736 184.3318,-736 184.3318,-682 184.3318,-682 184.3318,-676 190.3318,-670 196.3318,-670 196.3318,-670 321.7952,-670 321.7952,-670 327.7952,-670 333.7952,-676 333.7952,-682 333.7952,-682 333.7952,-736 333.7952,-736 333.7952,-742 327.7952,-748 321.7952,-748"/>
<text text-anchor="start" x="192.1978" y="-732.8" font-family="Helvetica,sans-Serif" font-size="14.00" fill="#000000">Normal Nucleoli ≤ 9.0</text>
<text text-anchor="start" x="226.5654" y="-718.8" font-family="Helvetica,sans-Serif" font-size="14.00" fill="#000000">gini = 0.01</text>
<text text-anchor="start" x="213.3413" y="-704.8" font-family="Helvetica,sans-Serif" font-size="14.00" fill="#000000">samples = 405</text>
<text text-anchor="start" x="211" y="-690.8" font-family="Helvetica,sans-Serif" font-size="14.00" fill="#000000">value = [403, 2]</text>
<text text-anchor="start" x="231.2446" y="-676.8" font-family="Helvetica,sans-Serif" font-size="14.00" fill="#000000">class = 0</text>
</g>
<!-- 2&#45;&gt;3 -->
<g id="edge3" class="edge">
<title>2&#45;&gt;3</title>
<path fill="none" stroke="#000000" d="M370.5591,-783.7677C356.1877,-774.1303 340.6934,-763.7401 325.9601,-753.8601"/>
<polygon fill="#000000" stroke="#000000" points="327.6424,-750.7741 317.3876,-748.1115 323.7437,-756.5879 327.6424,-750.7741"/>
</g>
<!-- 10 -->
<g id="node11" class="node">
<title>10</title>
<path fill="#399de5" fill-opacity="0.333333" stroke="#000000" d="M494.7638,-748C494.7638,-748 363.3632,-748 363.3632,-748 357.3632,-748 351.3632,-742 351.3632,-736 351.3632,-736 351.3632,-682 351.3632,-682 351.3632,-676 357.3632,-670 363.3632,-670 363.3632,-670 494.7638,-670 494.7638,-670 500.7638,-670 506.7638,-676 506.7638,-682 506.7638,-682 506.7638,-736 506.7638,-736 506.7638,-742 500.7638,-748 494.7638,-748"/>
<text text-anchor="start" x="359.4634" y="-732.8" font-family="Helvetica,sans-Serif" font-size="14.00" fill="#000000">Bland Chromatin ≤ 2.5</text>
<text text-anchor="start" x="396.5654" y="-718.8" font-family="Helvetica,sans-Serif" font-size="14.00" fill="#000000">gini = 0.48</text>
<text text-anchor="start" x="391.1274" y="-704.8" font-family="Helvetica,sans-Serif" font-size="14.00" fill="#000000">samples = 5</text>
<text text-anchor="start" x="388.7861" y="-690.8" font-family="Helvetica,sans-Serif" font-size="14.00" fill="#000000">value = [2, 3]</text>
<text text-anchor="start" x="401.2446" y="-676.8" font-family="Helvetica,sans-Serif" font-size="14.00" fill="#000000">class = 2</text>
</g>
<!-- 2&#45;&gt;10 -->
<g id="edge10" class="edge">
<title>2&#45;&gt;10</title>
<path fill="none" stroke="#000000" d="M429.0635,-783.7677C429.0635,-775.6172 429.0635,-766.9283 429.0635,-758.4649"/>
<polygon fill="#000000" stroke="#000000" points="432.5636,-758.3046 429.0635,-748.3046 425.5636,-758.3047 432.5636,-758.3046"/>
</g>
<!-- 4 -->
<g id="node5" class="node">
<title>4</title>
<path fill="#e58139" fill-opacity="0.996078" stroke="#000000" d="M194.8539,-634C194.8539,-634 95.2731,-634 95.2731,-634 89.2731,-634 83.2731,-628 83.2731,-622 83.2731,-622 83.2731,-568 83.2731,-568 83.2731,-562 89.2731,-556 95.2731,-556 95.2731,-556 194.8539,-556 194.8539,-556 200.8539,-556 206.8539,-562 206.8539,-568 206.8539,-568 206.8539,-622 206.8539,-622 206.8539,-628 200.8539,-634 194.8539,-634"/>
<text text-anchor="start" x="91.4185" y="-618.8" font-family="Helvetica,sans-Serif" font-size="14.00" fill="#000000">Bare Nuclei ≤ 4.5</text>
<text text-anchor="start" x="108.6724" y="-604.8" font-family="Helvetica,sans-Serif" font-size="14.00" fill="#000000">gini = 0.005</text>
<text text-anchor="start" x="99.3413" y="-590.8" font-family="Helvetica,sans-Serif" font-size="14.00" fill="#000000">samples = 404</text>
<text text-anchor="start" x="97" y="-576.8" font-family="Helvetica,sans-Serif" font-size="14.00" fill="#000000">value = [403, 1]</text>
<text text-anchor="start" x="117.2446" y="-562.8" font-family="Helvetica,sans-Serif" font-size="14.00" fill="#000000">class = 0</text>
</g>
<!-- 3&#45;&gt;4 -->
<g id="edge4" class="edge">
<title>3&#45;&gt;4</title>
<path fill="none" stroke="#000000" d="M219.8311,-669.7677C210.6955,-660.632 200.8832,-650.8198 191.4705,-641.407"/>
<polygon fill="#000000" stroke="#000000" points="193.9141,-638.9009 184.3681,-634.3046 188.9643,-643.8506 193.9141,-638.9009"/>
</g>
<!-- 9 -->
<g id="node10" class="node">
<title>9</title>
<path fill="#399de5" stroke="#000000" d="M309.1192,-627C309.1192,-627 237.0078,-627 237.0078,-627 231.0078,-627 225.0078,-621 225.0078,-615 225.0078,-615 225.0078,-575 225.0078,-575 225.0078,-569 231.0078,-563 237.0078,-563 237.0078,-563 309.1192,-563 309.1192,-563 315.1192,-563 321.1192,-569 321.1192,-575 321.1192,-575 321.1192,-615 321.1192,-615 321.1192,-621 315.1192,-627 309.1192,-627"/>
<text text-anchor="start" x="244.4585" y="-611.8" font-family="Helvetica,sans-Serif" font-size="14.00" fill="#000000">gini = 0.0</text>
<text text-anchor="start" x="235.1274" y="-597.8" font-family="Helvetica,sans-Serif" font-size="14.00" fill="#000000">samples = 1</text>
<text text-anchor="start" x="232.7861" y="-583.8" font-family="Helvetica,sans-Serif" font-size="14.00" fill="#000000">value = [0, 1]</text>
<text text-anchor="start" x="245.2446" y="-569.8" font-family="Helvetica,sans-Serif" font-size="14.00" fill="#000000">class = 2</text>
</g>
<!-- 3&#45;&gt;9 -->
<g id="edge9" class="edge">
<title>3&#45;&gt;9</title>
<path fill="none" stroke="#000000" d="M263.8815,-669.7677C265.1762,-659.2251 266.5815,-647.7816 267.8944,-637.0907"/>
<polygon fill="#000000" stroke="#000000" points="271.3732,-637.4773 269.1183,-627.1252 264.4254,-636.624 271.3732,-637.4773"/>
</g>
<!-- 5 -->
<g id="node6" class="node">
<title>5</title>
<path fill="#e58139" stroke="#000000" d="M100.1905,-513C100.1905,-513 11.9365,-513 11.9365,-513 5.9365,-513 -.0635,-507 -.0635,-501 -.0635,-501 -.0635,-461 -.0635,-461 -.0635,-455 5.9365,-449 11.9365,-449 11.9365,-449 100.1905,-449 100.1905,-449 106.1905,-449 112.1905,-455 112.1905,-461 112.1905,-461 112.1905,-501 112.1905,-501 112.1905,-507 106.1905,-513 100.1905,-513"/>
<text text-anchor="start" x="27.4585" y="-497.8" font-family="Helvetica,sans-Serif" font-size="14.00" fill="#000000">gini = 0.0</text>
<text text-anchor="start" x="10.3413" y="-483.8" font-family="Helvetica,sans-Serif" font-size="14.00" fill="#000000">samples = 396</text>
<text text-anchor="start" x="8" y="-469.8" font-family="Helvetica,sans-Serif" font-size="14.00" fill="#000000">value = [396, 0]</text>
<text text-anchor="start" x="28.2446" y="-455.8" font-family="Helvetica,sans-Serif" font-size="14.00" fill="#000000">class = 0</text>
</g>
<!-- 4&#45;&gt;5 -->
<g id="edge5" class="edge">
<title>4&#45;&gt;5</title>
<path fill="none" stroke="#000000" d="M114.4347,-555.7677C105.695,-544.573 96.1622,-532.3624 87.382,-521.1158"/>
<polygon fill="#000000" stroke="#000000" points="90.0563,-518.8537 81.1437,-513.1252 84.5386,-523.1614 90.0563,-518.8537"/>
</g>
<!-- 6 -->
<g id="node7" class="node">
<title>6</title>
<path fill="#e58139" fill-opacity="0.858824" stroke="#000000" d="M327.7395,-520C327.7395,-520 142.3874,-520 142.3874,-520 136.3874,-520 130.3874,-514 130.3874,-508 130.3874,-508 130.3874,-454 130.3874,-454 130.3874,-448 136.3874,-442 142.3874,-442 142.3874,-442 327.7395,-442 327.7395,-442 333.7395,-442 339.7395,-448 339.7395,-454 339.7395,-454 339.7395,-508 339.7395,-508 339.7395,-514 333.7395,-520 327.7395,-520"/>
<text text-anchor="start" x="138.2256" y="-504.8" font-family="Helvetica,sans-Serif" font-size="14.00" fill="#000000">Single Epithelial Cell Size ≤ 1.5</text>
<text text-anchor="start" x="198.6724" y="-490.8" font-family="Helvetica,sans-Serif" font-size="14.00" fill="#000000">gini = 0.219</text>
<text text-anchor="start" x="197.1274" y="-476.8" font-family="Helvetica,sans-Serif" font-size="14.00" fill="#000000">samples = 8</text>
<text text-anchor="start" x="194.7861" y="-462.8" font-family="Helvetica,sans-Serif" font-size="14.00" fill="#000000">value = [7, 1]</text>
<text text-anchor="start" x="207.2446" y="-448.8" font-family="Helvetica,sans-Serif" font-size="14.00" fill="#000000">class = 0</text>
</g>
<!-- 4&#45;&gt;6 -->
<g id="edge6" class="edge">
<title>4&#45;&gt;6</title>
<path fill="none" stroke="#000000" d="M176.0364,-555.7677C183.0366,-546.9007 190.54,-537.3964 197.7699,-528.2385"/>
<polygon fill="#000000" stroke="#000000" points="200.5841,-530.3223 204.0335,-520.3046 195.0899,-525.9847 200.5841,-530.3223"/>
</g>
<!-- 7 -->
<g id="node8" class="node">
<title>7</title>
<path fill="#399de5" stroke="#000000" d="M214.1192,-399C214.1192,-399 142.0078,-399 142.0078,-399 136.0078,-399 130.0078,-393 130.0078,-387 130.0078,-387 130.0078,-347 130.0078,-347 130.0078,-341 136.0078,-335 142.0078,-335 142.0078,-335 214.1192,-335 214.1192,-335 220.1192,-335 226.1192,-341 226.1192,-347 226.1192,-347 226.1192,-387 226.1192,-387 226.1192,-393 220.1192,-399 214.1192,-399"/>
<text text-anchor="start" x="149.4585" y="-383.8" font-family="Helvetica,sans-Serif" font-size="14.00" fill="#000000">gini = 0.0</text>
<text text-anchor="start" x="140.1274" y="-369.8" font-family="Helvetica,sans-Serif" font-size="14.00" fill="#000000">samples = 1</text>
<text text-anchor="start" x="137.7861" y="-355.8" font-family="Helvetica,sans-Serif" font-size="14.00" fill="#000000">value = [0, 1]</text>
<text text-anchor="start" x="150.2446" y="-341.8" font-family="Helvetica,sans-Serif" font-size="14.00" fill="#000000">class = 2</text>
</g>
<!-- 6&#45;&gt;7 -->
<g id="edge7" class="edge">
<title>6&#45;&gt;7</title>
<path fill="none" stroke="#000000" d="M215.4473,-441.7677C210.013,-430.8991 204.0999,-419.0729 198.6139,-408.1009"/>
<polygon fill="#000000" stroke="#000000" points="201.7288,-406.5042 194.1261,-399.1252 195.4678,-409.6347 201.7288,-406.5042"/>
</g>
<!-- 8 -->
<g id="node9" class="node">
<title>8</title>
<path fill="#e58139" stroke="#000000" d="M329.1192,-399C329.1192,-399 257.0078,-399 257.0078,-399 251.0078,-399 245.0078,-393 245.0078,-387 245.0078,-387 245.0078,-347 245.0078,-347 245.0078,-341 251.0078,-335 257.0078,-335 257.0078,-335 329.1192,-335 329.1192,-335 335.1192,-335 341.1192,-341 341.1192,-347 341.1192,-347 341.1192,-387 341.1192,-387 341.1192,-393 335.1192,-399 329.1192,-399"/>
<text text-anchor="start" x="264.4585" y="-383.8" font-family="Helvetica,sans-Serif" font-size="14.00" fill="#000000">gini = 0.0</text>
<text text-anchor="start" x="255.1274" y="-369.8" font-family="Helvetica,sans-Serif" font-size="14.00" fill="#000000">samples = 7</text>
<text text-anchor="start" x="252.7861" y="-355.8" font-family="Helvetica,sans-Serif" font-size="14.00" fill="#000000">value = [7, 0]</text>
<text text-anchor="start" x="265.2446" y="-341.8" font-family="Helvetica,sans-Serif" font-size="14.00" fill="#000000">class = 0</text>
</g>
<!-- 6&#45;&gt;8 -->
<g id="edge8" class="edge">
<title>6&#45;&gt;8</title>
<path fill="none" stroke="#000000" d="M255.0238,-441.7677C260.5534,-430.8991 266.5703,-419.0729 272.1525,-408.1009"/>
<polygon fill="#000000" stroke="#000000" points="275.3039,-409.6251 276.7191,-399.1252 269.065,-406.4509 275.3039,-409.6251"/>
</g>
<!-- 11 -->
<g id="node12" class="node">
<title>11</title>
<path fill="#e58139" stroke="#000000" d="M451.1192,-627C451.1192,-627 379.0078,-627 379.0078,-627 373.0078,-627 367.0078,-621 367.0078,-615 367.0078,-615 367.0078,-575 367.0078,-575 367.0078,-569 373.0078,-563 379.0078,-563 379.0078,-563 451.1192,-563 451.1192,-563 457.1192,-563 463.1192,-569 463.1192,-575 463.1192,-575 463.1192,-615 463.1192,-615 463.1192,-621 457.1192,-627 451.1192,-627"/>
<text text-anchor="start" x="386.4585" y="-611.8" font-family="Helvetica,sans-Serif" font-size="14.00" fill="#000000">gini = 0.0</text>
<text text-anchor="start" x="377.1274" y="-597.8" font-family="Helvetica,sans-Serif" font-size="14.00" fill="#000000">samples = 2</text>
<text text-anchor="start" x="374.7861" y="-583.8" font-family="Helvetica,sans-Serif" font-size="14.00" fill="#000000">value = [2, 0]</text>
<text text-anchor="start" x="387.2446" y="-569.8" font-family="Helvetica,sans-Serif" font-size="14.00" fill="#000000">class = 0</text>
</g>
<!-- 10&#45;&gt;11 -->
<g id="edge11" class="edge">
<title>10&#45;&gt;11</title>
<path fill="none" stroke="#000000" d="M424.2455,-669.7677C422.9508,-659.2251 421.5454,-647.7816 420.2325,-637.0907"/>
<polygon fill="#000000" stroke="#000000" points="423.7016,-636.624 419.0087,-627.1252 416.7538,-637.4773 423.7016,-636.624"/>
</g>
<!-- 12 -->
<g id="node13" class="node">
<title>12</title>
<path fill="#399de5" stroke="#000000" d="M566.1192,-627C566.1192,-627 494.0078,-627 494.0078,-627 488.0078,-627 482.0078,-621 482.0078,-615 482.0078,-615 482.0078,-575 482.0078,-575 482.0078,-569 488.0078,-563 494.0078,-563 494.0078,-563 566.1192,-563 566.1192,-563 572.1192,-563 578.1192,-569 578.1192,-575 578.1192,-575 578.1192,-615 578.1192,-615 578.1192,-621 572.1192,-627 566.1192,-627"/>
<text text-anchor="start" x="501.4585" y="-611.8" font-family="Helvetica,sans-Serif" font-size="14.00" fill="#000000">gini = 0.0</text>
<text text-anchor="start" x="492.1274" y="-597.8" font-family="Helvetica,sans-Serif" font-size="14.00" fill="#000000">samples = 3</text>
<text text-anchor="start" x="489.7861" y="-583.8" font-family="Helvetica,sans-Serif" font-size="14.00" fill="#000000">value = [0, 3]</text>
<text text-anchor="start" x="502.2446" y="-569.8" font-family="Helvetica,sans-Serif" font-size="14.00" fill="#000000">class = 2</text>
</g>
<!-- 10&#45;&gt;12 -->
<g id="edge12" class="edge">
<title>10&#45;&gt;12</title>
<path fill="none" stroke="#000000" d="M463.8219,-669.7677C473.8363,-658.4643 484.7683,-646.1252 494.8123,-634.7885"/>
<polygon fill="#000000" stroke="#000000" points="497.59,-636.9312 501.6017,-627.1252 492.3505,-632.2892 497.59,-636.9312"/>
</g>
<!-- 14 -->
<g id="node15" class="node">
<title>14</title>
<path fill="#e58139" stroke="#000000" d="M609.1192,-741C609.1192,-741 537.0078,-741 537.0078,-741 531.0078,-741 525.0078,-735 525.0078,-729 525.0078,-729 525.0078,-689 525.0078,-689 525.0078,-683 531.0078,-677 537.0078,-677 537.0078,-677 609.1192,-677 609.1192,-677 615.1192,-677 621.1192,-683 621.1192,-689 621.1192,-689 621.1192,-729 621.1192,-729 621.1192,-735 615.1192,-741 609.1192,-741"/>
<text text-anchor="start" x="544.4585" y="-725.8" font-family="Helvetica,sans-Serif" font-size="14.00" fill="#000000">gini = 0.0</text>
<text text-anchor="start" x="535.1274" y="-711.8" font-family="Helvetica,sans-Serif" font-size="14.00" fill="#000000">samples = 1</text>
<text text-anchor="start" x="532.7861" y="-697.8" font-family="Helvetica,sans-Serif" font-size="14.00" fill="#000000">value = [1, 0]</text>
<text text-anchor="start" x="545.2446" y="-683.8" font-family="Helvetica,sans-Serif" font-size="14.00" fill="#000000">class = 0</text>
</g>
<!-- 13&#45;&gt;14 -->
<g id="edge14" class="edge">
<title>13&#45;&gt;14</title>
<path fill="none" stroke="#000000" d="M610.4473,-783.7677C605.013,-772.8991 599.0999,-761.0729 593.6139,-750.1009"/>
<polygon fill="#000000" stroke="#000000" points="596.7288,-748.5042 589.1261,-741.1252 590.4678,-751.6347 596.7288,-748.5042"/>
</g>
<!-- 15 -->
<g id="node16" class="node">
<title>15</title>
<path fill="#399de5" stroke="#000000" d="M724.1192,-741C724.1192,-741 652.0078,-741 652.0078,-741 646.0078,-741 640.0078,-735 640.0078,-729 640.0078,-729 640.0078,-689 640.0078,-689 640.0078,-683 646.0078,-677 652.0078,-677 652.0078,-677 724.1192,-677 724.1192,-677 730.1192,-677 736.1192,-683 736.1192,-689 736.1192,-689 736.1192,-729 736.1192,-729 736.1192,-735 730.1192,-741 724.1192,-741"/>
<text text-anchor="start" x="659.4585" y="-725.8" font-family="Helvetica,sans-Serif" font-size="14.00" fill="#000000">gini = 0.0</text>
<text text-anchor="start" x="650.1274" y="-711.8" font-family="Helvetica,sans-Serif" font-size="14.00" fill="#000000">samples = 7</text>
<text text-anchor="start" x="647.7861" y="-697.8" font-family="Helvetica,sans-Serif" font-size="14.00" fill="#000000">value = [0, 7]</text>
<text text-anchor="start" x="660.2446" y="-683.8" font-family="Helvetica,sans-Serif" font-size="14.00" fill="#000000">class = 2</text>
</g>
<!-- 13&#45;&gt;15 -->
<g id="edge15" class="edge">
<title>13&#45;&gt;15</title>
<path fill="none" stroke="#000000" d="M650.0238,-783.7677C655.5534,-772.8991 661.5703,-761.0729 667.1525,-750.1009"/>
<polygon fill="#000000" stroke="#000000" points="670.3039,-751.6251 671.7191,-741.1252 664.065,-748.4509 670.3039,-751.6251"/>
</g>
<!-- 17 -->
<g id="node18" class="node">
<title>17</title>
<path fill="#e58139" fill-opacity="0.721569" stroke="#000000" d="M960.1074,-862C960.1074,-862 826.0195,-862 826.0195,-862 820.0195,-862 814.0195,-856 814.0195,-850 814.0195,-850 814.0195,-796 814.0195,-796 814.0195,-790 820.0195,-784 826.0195,-784 826.0195,-784 960.1074,-784 960.1074,-784 966.1074,-784 972.1074,-790 972.1074,-796 972.1074,-796 972.1074,-850 972.1074,-850 972.1074,-856 966.1074,-862 960.1074,-862"/>
<text text-anchor="start" x="822.0415" y="-846.8" font-family="Helvetica,sans-Serif" font-size="14.00" fill="#000000">Clump Thickness ≤ 5.5</text>
<text text-anchor="start" x="860.5654" y="-832.8" font-family="Helvetica,sans-Serif" font-size="14.00" fill="#000000">gini = 0.34</text>
<text text-anchor="start" x="851.2344" y="-818.8" font-family="Helvetica,sans-Serif" font-size="14.00" fill="#000000">samples = 23</text>
<text text-anchor="start" x="848.8931" y="-804.8" font-family="Helvetica,sans-Serif" font-size="14.00" fill="#000000">value = [18, 5]</text>
<text text-anchor="start" x="865.2446" y="-790.8" font-family="Helvetica,sans-Serif" font-size="14.00" fill="#000000">class = 0</text>
</g>
<!-- 16&#45;&gt;17 -->
<g id="edge17" class="edge">
<title>16&#45;&gt;17</title>
<path fill="none" stroke="#000000" d="M893.0635,-897.7677C893.0635,-889.6172 893.0635,-880.9283 893.0635,-872.4649"/>
<polygon fill="#000000" stroke="#000000" points="896.5636,-872.3046 893.0635,-862.3046 889.5636,-872.3047 896.5636,-872.3046"/>
</g>
<!-- 22 -->
<g id="node23" class="node">
<title>22</title>
<path fill="#399de5" fill-opacity="0.909804" stroke="#000000" d="M1222.1918,-862C1222.1918,-862 1057.9352,-862 1057.9352,-862 1051.9352,-862 1045.9352,-856 1045.9352,-850 1045.9352,-850 1045.9352,-796 1045.9352,-796 1045.9352,-790 1051.9352,-784 1057.9352,-784 1057.9352,-784 1222.1918,-784 1222.1918,-784 1228.1918,-784 1234.1918,-790 1234.1918,-796 1234.1918,-796 1234.1918,-850 1234.1918,-850 1234.1918,-856 1228.1918,-862 1222.1918,-862"/>
<text text-anchor="start" x="1053.7495" y="-846.8" font-family="Helvetica,sans-Serif" font-size="14.00" fill="#000000">Uniformity of Cell Size ≤ 4.5</text>
<text text-anchor="start" x="1103.6724" y="-832.8" font-family="Helvetica,sans-Serif" font-size="14.00" fill="#000000">gini = 0.152</text>
<text text-anchor="start" x="1094.3413" y="-818.8" font-family="Helvetica,sans-Serif" font-size="14.00" fill="#000000">samples = 242</text>
<text text-anchor="start" x="1088.1069" y="-804.8" font-family="Helvetica,sans-Serif" font-size="14.00" fill="#000000">value = [20, 222]</text>
<text text-anchor="start" x="1112.2446" y="-790.8" font-family="Helvetica,sans-Serif" font-size="14.00" fill="#000000">class = 2</text>
</g>
<!-- 16&#45;&gt;22 -->
<g id="edge22" class="edge">
<title>16&#45;&gt;22</title>
<path fill="none" stroke="#000000" d="M977.7213,-897.9272C999.8146,-887.7303 1023.7543,-876.6812 1046.29,-866.2801"/>
<polygon fill="#000000" stroke="#000000" points="1047.9034,-869.3903 1055.5163,-862.0218 1044.97,-863.0346 1047.9034,-869.3903"/>
</g>
<!-- 18 -->
<g id="node19" class="node">
<title>18</title>
<path fill="#e58139" fill-opacity="0.945098" stroke="#000000" d="M908.1807,-748C908.1807,-748 765.9462,-748 765.9462,-748 759.9462,-748 753.9462,-742 753.9462,-736 753.9462,-736 753.9462,-682 753.9462,-682 753.9462,-676 759.9462,-670 765.9462,-670 765.9462,-670 908.1807,-670 908.1807,-670 914.1807,-670 920.1807,-676 920.1807,-682 920.1807,-682 920.1807,-736 920.1807,-736 920.1807,-742 914.1807,-748 908.1807,-748"/>
<text text-anchor="start" x="762.0049" y="-732.8" font-family="Helvetica,sans-Serif" font-size="14.00" fill="#000000">Marginal Adhesion ≤ 7.0</text>
<text text-anchor="start" x="808.4585" y="-718.8" font-family="Helvetica,sans-Serif" font-size="14.00" fill="#000000">gini = 0.1</text>
<text text-anchor="start" x="795.2344" y="-704.8" font-family="Helvetica,sans-Serif" font-size="14.00" fill="#000000">samples = 19</text>
<text text-anchor="start" x="792.8931" y="-690.8" font-family="Helvetica,sans-Serif" font-size="14.00" fill="#000000">value = [18, 1]</text>
<text text-anchor="start" x="809.2446" y="-676.8" font-family="Helvetica,sans-Serif" font-size="14.00" fill="#000000">class = 0</text>
</g>
<!-- 17&#45;&gt;18 -->
<g id="edge18" class="edge">
<title>17&#45;&gt;18</title>
<path fill="none" stroke="#000000" d="M873.7915,-783.7677C869.6117,-775.259 865.1437,-766.1634 860.8145,-757.3502"/>
<polygon fill="#000000" stroke="#000000" points="863.9216,-755.737 856.371,-748.3046 857.6387,-758.8234 863.9216,-755.737"/>
</g>
<!-- 21 -->
<g id="node22" class="node">
<title>21</title>
<path fill="#399de5" stroke="#000000" d="M1022.1192,-741C1022.1192,-741 950.0078,-741 950.0078,-741 944.0078,-741 938.0078,-735 938.0078,-729 938.0078,-729 938.0078,-689 938.0078,-689 938.0078,-683 944.0078,-677 950.0078,-677 950.0078,-677 1022.1192,-677 1022.1192,-677 1028.1192,-677 1034.1192,-683 1034.1192,-689 1034.1192,-689 1034.1192,-729 1034.1192,-729 1034.1192,-735 1028.1192,-741 1022.1192,-741"/>
<text text-anchor="start" x="957.4585" y="-725.8" font-family="Helvetica,sans-Serif" font-size="14.00" fill="#000000">gini = 0.0</text>
<text text-anchor="start" x="948.1274" y="-711.8" font-family="Helvetica,sans-Serif" font-size="14.00" fill="#000000">samples = 4</text>
<text text-anchor="start" x="945.7861" y="-697.8" font-family="Helvetica,sans-Serif" font-size="14.00" fill="#000000">value = [0, 4]</text>
<text text-anchor="start" x="958.2446" y="-683.8" font-family="Helvetica,sans-Serif" font-size="14.00" fill="#000000">class = 2</text>
</g>
<!-- 17&#45;&gt;21 -->
<g id="edge21" class="edge">
<title>17&#45;&gt;21</title>
<path fill="none" stroke="#000000" d="M925.0688,-783.7677C934.2013,-772.573 944.1626,-760.3624 953.3374,-749.1158"/>
<polygon fill="#000000" stroke="#000000" points="956.2468,-751.0863 959.8561,-741.1252 950.8227,-746.6614 956.2468,-751.0863"/>
</g>
<!-- 19 -->
<g id="node20" class="node">
<title>19</title>
<path fill="#e58139" stroke="#000000" d="M759.4049,-627C759.4049,-627 678.7221,-627 678.7221,-627 672.7221,-627 666.7221,-621 666.7221,-615 666.7221,-615 666.7221,-575 666.7221,-575 666.7221,-569 672.7221,-563 678.7221,-563 678.7221,-563 759.4049,-563 759.4049,-563 765.4049,-563 771.4049,-569 771.4049,-575 771.4049,-575 771.4049,-615 771.4049,-615 771.4049,-621 765.4049,-627 759.4049,-627"/>
<text text-anchor="start" x="690.4585" y="-611.8" font-family="Helvetica,sans-Serif" font-size="14.00" fill="#000000">gini = 0.0</text>
<text text-anchor="start" x="677.2344" y="-597.8" font-family="Helvetica,sans-Serif" font-size="14.00" fill="#000000">samples = 18</text>
<text text-anchor="start" x="674.8931" y="-583.8" font-family="Helvetica,sans-Serif" font-size="14.00" fill="#000000">value = [18, 0]</text>
<text text-anchor="start" x="691.2446" y="-569.8" font-family="Helvetica,sans-Serif" font-size="14.00" fill="#000000">class = 0</text>
</g>
<!-- 18&#45;&gt;19 -->
<g id="edge19" class="edge">
<title>18&#45;&gt;19</title>
<path fill="none" stroke="#000000" d="M796.4546,-669.7677C784.5296,-658.247 771.4909,-645.6503 759.5722,-634.1356"/>
<polygon fill="#000000" stroke="#000000" points="761.9397,-631.5562 752.3159,-627.1252 757.076,-636.5905 761.9397,-631.5562"/>
</g>
<!-- 20 -->
<g id="node21" class="node">
<title>20</title>
<path fill="#399de5" stroke="#000000" d="M873.1192,-627C873.1192,-627 801.0078,-627 801.0078,-627 795.0078,-627 789.0078,-621 789.0078,-615 789.0078,-615 789.0078,-575 789.0078,-575 789.0078,-569 795.0078,-563 801.0078,-563 801.0078,-563 873.1192,-563 873.1192,-563 879.1192,-563 885.1192,-569 885.1192,-575 885.1192,-575 885.1192,-615 885.1192,-615 885.1192,-621 879.1192,-627 873.1192,-627"/>
<text text-anchor="start" x="808.4585" y="-611.8" font-family="Helvetica,sans-Serif" font-size="14.00" fill="#000000">gini = 0.0</text>
<text text-anchor="start" x="799.1274" y="-597.8" font-family="Helvetica,sans-Serif" font-size="14.00" fill="#000000">samples = 1</text>
<text text-anchor="start" x="796.7861" y="-583.8" font-family="Helvetica,sans-Serif" font-size="14.00" fill="#000000">value = [0, 1]</text>
<text text-anchor="start" x="809.2446" y="-569.8" font-family="Helvetica,sans-Serif" font-size="14.00" fill="#000000">class = 2</text>
</g>
<!-- 18&#45;&gt;20 -->
<g id="edge20" class="edge">
<title>18&#45;&gt;20</title>
<path fill="none" stroke="#000000" d="M837.0635,-669.7677C837.0635,-659.3338 837.0635,-648.0174 837.0635,-637.4215"/>
<polygon fill="#000000" stroke="#000000" points="840.5636,-637.1252 837.0635,-627.1252 833.5636,-637.1252 840.5636,-637.1252"/>
</g>
<!-- 23 -->
<g id="node24" class="node">
<title>23</title>
<path fill="#399de5" fill-opacity="0.666667" stroke="#000000" d="M1189.8539,-748C1189.8539,-748 1090.2731,-748 1090.2731,-748 1084.2731,-748 1078.2731,-742 1078.2731,-736 1078.2731,-736 1078.2731,-682 1078.2731,-682 1078.2731,-676 1084.2731,-670 1090.2731,-670 1090.2731,-670 1189.8539,-670 1189.8539,-670 1195.8539,-670 1201.8539,-676 1201.8539,-682 1201.8539,-682 1201.8539,-736 1201.8539,-736 1201.8539,-742 1195.8539,-748 1189.8539,-748"/>
<text text-anchor="start" x="1086.4185" y="-732.8" font-family="Helvetica,sans-Serif" font-size="14.00" fill="#000000">Bare Nuclei ≤ 2.5</text>
<text text-anchor="start" x="1103.6724" y="-718.8" font-family="Helvetica,sans-Serif" font-size="14.00" fill="#000000">gini = 0.375</text>
<text text-anchor="start" x="1098.2344" y="-704.8" font-family="Helvetica,sans-Serif" font-size="14.00" fill="#000000">samples = 68</text>
<text text-anchor="start" x="1092" y="-690.8" font-family="Helvetica,sans-Serif" font-size="14.00" fill="#000000">value = [17, 51]</text>
<text text-anchor="start" x="1112.2446" y="-676.8" font-family="Helvetica,sans-Serif" font-size="14.00" fill="#000000">class = 2</text>
</g>
<!-- 22&#45;&gt;23 -->
<g id="edge23" class="edge">
<title>22&#45;&gt;23</title>
<path fill="none" stroke="#000000" d="M1140.0635,-783.7677C1140.0635,-775.6172 1140.0635,-766.9283 1140.0635,-758.4649"/>
<polygon fill="#000000" stroke="#000000" points="1143.5636,-758.3046 1140.0635,-748.3046 1136.5636,-758.3047 1143.5636,-758.3046"/>
</g>
<!-- 50 -->
<g id="node51" class="node">
<title>50</title>
<path fill="#399de5" fill-opacity="0.984314" stroke="#000000" d="M1664.1807,-748C1664.1807,-748 1521.9462,-748 1521.9462,-748 1515.9462,-748 1509.9462,-742 1509.9462,-736 1509.9462,-736 1509.9462,-682 1509.9462,-682 1509.9462,-676 1515.9462,-670 1521.9462,-670 1521.9462,-670 1664.1807,-670 1664.1807,-670 1670.1807,-670 1676.1807,-676 1676.1807,-682 1676.1807,-682 1676.1807,-736 1676.1807,-736 1676.1807,-742 1670.1807,-748 1664.1807,-748"/>
<text text-anchor="start" x="1518.0049" y="-732.8" font-family="Helvetica,sans-Serif" font-size="14.00" fill="#000000">Marginal Adhesion ≤ 1.5</text>
<text text-anchor="start" x="1556.6724" y="-718.8" font-family="Helvetica,sans-Serif" font-size="14.00" fill="#000000">gini = 0.034</text>
<text text-anchor="start" x="1547.3413" y="-704.8" font-family="Helvetica,sans-Serif" font-size="14.00" fill="#000000">samples = 174</text>
<text text-anchor="start" x="1545" y="-690.8" font-family="Helvetica,sans-Serif" font-size="14.00" fill="#000000">value = [3, 171]</text>
<text text-anchor="start" x="1565.2446" y="-676.8" font-family="Helvetica,sans-Serif" font-size="14.00" fill="#000000">class = 2</text>
</g>
<!-- 22&#45;&gt;50 -->
<g id="edge50" class="edge">
<title>22&#45;&gt;50</title>
<path fill="none" stroke="#000000" d="M1234.2004,-799.3099C1312.1348,-779.6973 1422.2779,-751.9792 1499.9332,-732.4368"/>
<polygon fill="#000000" stroke="#000000" points="1500.8703,-735.8101 1509.7138,-729.9754 1499.1619,-729.0218 1500.8703,-735.8101"/>
</g>
<!-- 24 -->
<g id="node25" class="node">
<title>24</title>
<path fill="#e58139" fill-opacity="0.600000" stroke="#000000" d="M1057.1807,-634C1057.1807,-634 914.9462,-634 914.9462,-634 908.9462,-634 902.9462,-628 902.9462,-622 902.9462,-622 902.9462,-568 902.9462,-568 902.9462,-562 908.9462,-556 914.9462,-556 914.9462,-556 1057.1807,-556 1057.1807,-556 1063.1807,-556 1069.1807,-562 1069.1807,-568 1069.1807,-568 1069.1807,-622 1069.1807,-622 1069.1807,-628 1063.1807,-634 1057.1807,-634"/>
<text text-anchor="start" x="911.0049" y="-618.8" font-family="Helvetica,sans-Serif" font-size="14.00" fill="#000000">Marginal Adhesion ≤ 3.5</text>
<text text-anchor="start" x="949.6724" y="-604.8" font-family="Helvetica,sans-Serif" font-size="14.00" fill="#000000">gini = 0.408</text>
<text text-anchor="start" x="944.2344" y="-590.8" font-family="Helvetica,sans-Serif" font-size="14.00" fill="#000000">samples = 14</text>
<text text-anchor="start" x="941.8931" y="-576.8" font-family="Helvetica,sans-Serif" font-size="14.00" fill="#000000">value = [10, 4]</text>
<text text-anchor="start" x="958.2446" y="-562.8" font-family="Helvetica,sans-Serif" font-size="14.00" fill="#000000">class = 0</text>
</g>
<!-- 23&#45;&gt;24 -->
<g id="edge24" class="edge">
<title>23&#45;&gt;24</title>
<path fill="none" stroke="#000000" d="M1087.0654,-669.7677C1074.1682,-660.2204 1060.2729,-649.9342 1047.0384,-640.1373"/>
<polygon fill="#000000" stroke="#000000" points="1049.0181,-637.2482 1038.8982,-634.1115 1044.8533,-642.8744 1049.0181,-637.2482"/>
</g>
<!-- 29 -->
<g id="node30" class="node">
<title>29</title>
<path fill="#399de5" fill-opacity="0.850980" stroke="#000000" d="M1233.1074,-634C1233.1074,-634 1099.0195,-634 1099.0195,-634 1093.0195,-634 1087.0195,-628 1087.0195,-622 1087.0195,-622 1087.0195,-568 1087.0195,-568 1087.0195,-562 1093.0195,-556 1099.0195,-556 1099.0195,-556 1233.1074,-556 1233.1074,-556 1239.1074,-556 1245.1074,-562 1245.1074,-568 1245.1074,-568 1245.1074,-622 1245.1074,-622 1245.1074,-628 1239.1074,-634 1233.1074,-634"/>
<text text-anchor="start" x="1095.0415" y="-618.8" font-family="Helvetica,sans-Serif" font-size="14.00" fill="#000000">Clump Thickness ≤ 6.5</text>
<text text-anchor="start" x="1129.6724" y="-604.8" font-family="Helvetica,sans-Serif" font-size="14.00" fill="#000000">gini = 0.226</text>
<text text-anchor="start" x="1124.2344" y="-590.8" font-family="Helvetica,sans-Serif" font-size="14.00" fill="#000000">samples = 54</text>
<text text-anchor="start" x="1121.8931" y="-576.8" font-family="Helvetica,sans-Serif" font-size="14.00" fill="#000000">value = [7, 47]</text>
<text text-anchor="start" x="1138.2446" y="-562.8" font-family="Helvetica,sans-Serif" font-size="14.00" fill="#000000">class = 2</text>
</g>
<!-- 23&#45;&gt;29 -->
<g id="edge29" class="edge">
<title>23&#45;&gt;29</title>
<path fill="none" stroke="#000000" d="M1149.0112,-669.7677C1150.8905,-661.5277 1152.8953,-652.7372 1154.8456,-644.1859"/>
<polygon fill="#000000" stroke="#000000" points="1158.288,-644.8326 1157.0993,-634.3046 1151.4632,-643.276 1158.288,-644.8326"/>
</g>
<!-- 25 -->
<g id="node26" class="node">
<title>25</title>
<path fill="#e58139" fill-opacity="0.901961" stroke="#000000" d="M907.7952,-520C907.7952,-520 782.3318,-520 782.3318,-520 776.3318,-520 770.3318,-514 770.3318,-508 770.3318,-508 770.3318,-454 770.3318,-454 770.3318,-448 776.3318,-442 782.3318,-442 782.3318,-442 907.7952,-442 907.7952,-442 913.7952,-442 919.7952,-448 919.7952,-454 919.7952,-454 919.7952,-508 919.7952,-508 919.7952,-514 913.7952,-520 907.7952,-520"/>
<text text-anchor="start" x="778.1978" y="-504.8" font-family="Helvetica,sans-Serif" font-size="14.00" fill="#000000">Normal Nucleoli ≤ 7.5</text>
<text text-anchor="start" x="808.6724" y="-490.8" font-family="Helvetica,sans-Serif" font-size="14.00" fill="#000000">gini = 0.165</text>
<text text-anchor="start" x="803.7505" y="-476.8" font-family="Helvetica,sans-Serif" font-size="14.00" fill="#000000">samples = 11</text>
<text text-anchor="start" x="800.8931" y="-462.8" font-family="Helvetica,sans-Serif" font-size="14.00" fill="#000000">value = [10, 1]</text>
<text text-anchor="start" x="817.2446" y="-448.8" font-family="Helvetica,sans-Serif" font-size="14.00" fill="#000000">class = 0</text>
</g>
<!-- 24&#45;&gt;25 -->
<g id="edge25" class="edge">
<title>24&#45;&gt;25</title>
<path fill="none" stroke="#000000" d="M937.5393,-555.7677C926.0183,-546.4529 913.6275,-536.4347 901.7773,-526.8538"/>
<polygon fill="#000000" stroke="#000000" points="903.654,-523.8702 893.6771,-520.3046 899.2529,-529.3136 903.654,-523.8702"/>
</g>
<!-- 28 -->
<g id="node29" class="node">
<title>28</title>
<path fill="#399de5" stroke="#000000" d="M1022.1192,-513C1022.1192,-513 950.0078,-513 950.0078,-513 944.0078,-513 938.0078,-507 938.0078,-501 938.0078,-501 938.0078,-461 938.0078,-461 938.0078,-455 944.0078,-449 950.0078,-449 950.0078,-449 1022.1192,-449 1022.1192,-449 1028.1192,-449 1034.1192,-455 1034.1192,-461 1034.1192,-461 1034.1192,-501 1034.1192,-501 1034.1192,-507 1028.1192,-513 1022.1192,-513"/>
<text text-anchor="start" x="957.4585" y="-497.8" font-family="Helvetica,sans-Serif" font-size="14.00" fill="#000000">gini = 0.0</text>
<text text-anchor="start" x="948.1274" y="-483.8" font-family="Helvetica,sans-Serif" font-size="14.00" fill="#000000">samples = 3</text>
<text text-anchor="start" x="945.7861" y="-469.8" font-family="Helvetica,sans-Serif" font-size="14.00" fill="#000000">value = [0, 3]</text>
<text text-anchor="start" x="958.2446" y="-455.8" font-family="Helvetica,sans-Serif" font-size="14.00" fill="#000000">class = 2</text>
</g>
<!-- 24&#45;&gt;28 -->
<g id="edge28" class="edge">
<title>24&#45;&gt;28</title>
<path fill="none" stroke="#000000" d="M986.0635,-555.7677C986.0635,-545.3338 986.0635,-534.0174 986.0635,-523.4215"/>
<polygon fill="#000000" stroke="#000000" points="989.5636,-523.1252 986.0635,-513.1252 982.5636,-523.1252 989.5636,-523.1252"/>
</g>
<!-- 26 -->
<g id="node27" class="node">
<title>26</title>
<path fill="#e58139" stroke="#000000" d="M782.4049,-399C782.4049,-399 701.7221,-399 701.7221,-399 695.7221,-399 689.7221,-393 689.7221,-387 689.7221,-387 689.7221,-347 689.7221,-347 689.7221,-341 695.7221,-335 701.7221,-335 701.7221,-335 782.4049,-335 782.4049,-335 788.4049,-335 794.4049,-341 794.4049,-347 794.4049,-347 794.4049,-387 794.4049,-387 794.4049,-393 788.4049,-399 782.4049,-399"/>
<text text-anchor="start" x="713.4585" y="-383.8" font-family="Helvetica,sans-Serif" font-size="14.00" fill="#000000">gini = 0.0</text>
<text text-anchor="start" x="700.2344" y="-369.8" font-family="Helvetica,sans-Serif" font-size="14.00" fill="#000000">samples = 10</text>
<text text-anchor="start" x="697.8931" y="-355.8" font-family="Helvetica,sans-Serif" font-size="14.00" fill="#000000">value = [10, 0]</text>
<text text-anchor="start" x="714.2446" y="-341.8" font-family="Helvetica,sans-Serif" font-size="14.00" fill="#000000">class = 0</text>
</g>
<!-- 25&#45;&gt;26 -->
<g id="edge26" class="edge">
<title>25&#45;&gt;26</title>
<path fill="none" stroke="#000000" d="M809.6167,-441.7677C799.4041,-430.4643 788.2556,-418.1252 778.0127,-406.7885"/>
<polygon fill="#000000" stroke="#000000" points="780.3899,-404.1988 771.0889,-399.1252 775.1959,-408.8916 780.3899,-404.1988"/>
</g>
<!-- 27 -->
<g id="node28" class="node">
<title>27</title>
<path fill="#399de5" stroke="#000000" d="M896.1192,-399C896.1192,-399 824.0078,-399 824.0078,-399 818.0078,-399 812.0078,-393 812.0078,-387 812.0078,-387 812.0078,-347 812.0078,-347 812.0078,-341 818.0078,-335 824.0078,-335 824.0078,-335 896.1192,-335 896.1192,-335 902.1192,-335 908.1192,-341 908.1192,-347 908.1192,-347 908.1192,-387 908.1192,-387 908.1192,-393 902.1192,-399 896.1192,-399"/>
<text text-anchor="start" x="831.4585" y="-383.8" font-family="Helvetica,sans-Serif" font-size="14.00" fill="#000000">gini = 0.0</text>
<text text-anchor="start" x="822.1274" y="-369.8" font-family="Helvetica,sans-Serif" font-size="14.00" fill="#000000">samples = 1</text>
<text text-anchor="start" x="819.7861" y="-355.8" font-family="Helvetica,sans-Serif" font-size="14.00" fill="#000000">value = [0, 1]</text>
<text text-anchor="start" x="832.2446" y="-341.8" font-family="Helvetica,sans-Serif" font-size="14.00" fill="#000000">class = 2</text>
</g>
<!-- 25&#45;&gt;27 -->
<g id="edge27" class="edge">
<title>25&#45;&gt;27</title>
<path fill="none" stroke="#000000" d="M850.2256,-441.7677C851.6128,-431.2251 853.1185,-419.7816 854.5252,-409.0907"/>
<polygon fill="#000000" stroke="#000000" points="858.0019,-409.4964 855.8365,-399.1252 851.0618,-408.5831 858.0019,-409.4964"/>
</g>
<!-- 30 -->
<g id="node31" class="node">
<title>30</title>
<path fill="#399de5" fill-opacity="0.647059" stroke="#000000" d="M1198.1074,-520C1198.1074,-520 1064.0195,-520 1064.0195,-520 1058.0195,-520 1052.0195,-514 1052.0195,-508 1052.0195,-508 1052.0195,-454 1052.0195,-454 1052.0195,-448 1058.0195,-442 1064.0195,-442 1064.0195,-442 1198.1074,-442 1198.1074,-442 1204.1074,-442 1210.1074,-448 1210.1074,-454 1210.1074,-454 1210.1074,-508 1210.1074,-508 1210.1074,-514 1204.1074,-520 1198.1074,-520"/>
<text text-anchor="start" x="1060.0415" y="-504.8" font-family="Helvetica,sans-Serif" font-size="14.00" fill="#000000">Clump Thickness ≤ 5.5</text>
<text text-anchor="start" x="1094.6724" y="-490.8" font-family="Helvetica,sans-Serif" font-size="14.00" fill="#000000">gini = 0.386</text>
<text text-anchor="start" x="1089.2344" y="-476.8" font-family="Helvetica,sans-Serif" font-size="14.00" fill="#000000">samples = 23</text>
<text text-anchor="start" x="1086.8931" y="-462.8" font-family="Helvetica,sans-Serif" font-size="14.00" fill="#000000">value = [6, 17]</text>
<text text-anchor="start" x="1103.2446" y="-448.8" font-family="Helvetica,sans-Serif" font-size="14.00" fill="#000000">class = 2</text>
</g>
<!-- 29&#45;&gt;30 -->
<g id="edge30" class="edge">
<title>29&#45;&gt;30</title>
<path fill="none" stroke="#000000" d="M1154.0185,-555.7677C1151.4611,-547.4381 1148.7311,-538.5461 1146.0788,-529.9072"/>
<polygon fill="#000000" stroke="#000000" points="1149.4116,-528.837 1143.1307,-520.3046 1142.7199,-530.8915 1149.4116,-528.837"/>
</g>
<!-- 43 -->
<g id="node44" class="node">
<title>43</title>
<path fill="#399de5" fill-opacity="0.964706" stroke="#000000" d="M1339.8539,-520C1339.8539,-520 1240.2731,-520 1240.2731,-520 1234.2731,-520 1228.2731,-514 1228.2731,-508 1228.2731,-508 1228.2731,-454 1228.2731,-454 1228.2731,-448 1234.2731,-442 1240.2731,-442 1240.2731,-442 1339.8539,-442 1339.8539,-442 1345.8539,-442 1351.8539,-448 1351.8539,-454 1351.8539,-454 1351.8539,-508 1351.8539,-508 1351.8539,-514 1345.8539,-520 1339.8539,-520"/>
<text text-anchor="start" x="1236.4185" y="-504.8" font-family="Helvetica,sans-Serif" font-size="14.00" fill="#000000">Bare Nuclei ≤ 7.5</text>
<text text-anchor="start" x="1253.6724" y="-490.8" font-family="Helvetica,sans-Serif" font-size="14.00" fill="#000000">gini = 0.062</text>
<text text-anchor="start" x="1248.2344" y="-476.8" font-family="Helvetica,sans-Serif" font-size="14.00" fill="#000000">samples = 31</text>
<text text-anchor="start" x="1245.8931" y="-462.8" font-family="Helvetica,sans-Serif" font-size="14.00" fill="#000000">value = [1, 30]</text>
<text text-anchor="start" x="1262.2446" y="-448.8" font-family="Helvetica,sans-Serif" font-size="14.00" fill="#000000">class = 2</text>
</g>
<!-- 29&#45;&gt;43 -->
<g id="edge43" class="edge">
<title>29&#45;&gt;43</title>
<path fill="none" stroke="#000000" d="M1208.7372,-555.7677C1218.7717,-546.5424 1229.5566,-536.6273 1239.8867,-527.1302"/>
<polygon fill="#000000" stroke="#000000" points="1242.3182,-529.6493 1247.3111,-520.3046 1237.5805,-524.4961 1242.3182,-529.6493"/>
</g>
<!-- 31 -->
<g id="node32" class="node">
<title>31</title>
<path fill="#399de5" fill-opacity="0.705882" stroke="#000000" d="M1052.8539,-406C1052.8539,-406 953.2731,-406 953.2731,-406 947.2731,-406 941.2731,-400 941.2731,-394 941.2731,-394 941.2731,-340 941.2731,-340 941.2731,-334 947.2731,-328 953.2731,-328 953.2731,-328 1052.8539,-328 1052.8539,-328 1058.8539,-328 1064.8539,-334 1064.8539,-340 1064.8539,-340 1064.8539,-394 1064.8539,-394 1064.8539,-400 1058.8539,-406 1052.8539,-406"/>
<text text-anchor="start" x="949.4185" y="-390.8" font-family="Helvetica,sans-Serif" font-size="14.00" fill="#000000">Bare Nuclei ≤ 6.0</text>
<text text-anchor="start" x="966.6724" y="-376.8" font-family="Helvetica,sans-Serif" font-size="14.00" fill="#000000">gini = 0.351</text>
<text text-anchor="start" x="961.2344" y="-362.8" font-family="Helvetica,sans-Serif" font-size="14.00" fill="#000000">samples = 22</text>
<text text-anchor="start" x="958.8931" y="-348.8" font-family="Helvetica,sans-Serif" font-size="14.00" fill="#000000">value = [5, 17]</text>
<text text-anchor="start" x="975.2446" y="-334.8" font-family="Helvetica,sans-Serif" font-size="14.00" fill="#000000">class = 2</text>
</g>
<!-- 30&#45;&gt;31 -->
<g id="edge31" class="edge">
<title>30&#45;&gt;31</title>
<path fill="none" stroke="#000000" d="M1087.0131,-441.7677C1076.655,-432.5424 1065.5222,-422.6273 1054.8588,-413.1302"/>
<polygon fill="#000000" stroke="#000000" points="1056.9905,-410.3419 1047.195,-406.3046 1052.3349,-415.5692 1056.9905,-410.3419"/>
</g>
<!-- 42 -->
<g id="node43" class="node">
<title>42</title>
<path fill="#e58139" stroke="#000000" d="M1167.1192,-399C1167.1192,-399 1095.0078,-399 1095.0078,-399 1089.0078,-399 1083.0078,-393 1083.0078,-387 1083.0078,-387 1083.0078,-347 1083.0078,-347 1083.0078,-341 1089.0078,-335 1095.0078,-335 1095.0078,-335 1167.1192,-335 1167.1192,-335 1173.1192,-335 1179.1192,-341 1179.1192,-347 1179.1192,-347 1179.1192,-387 1179.1192,-387 1179.1192,-393 1173.1192,-399 1167.1192,-399"/>
<text text-anchor="start" x="1102.4585" y="-383.8" font-family="Helvetica,sans-Serif" font-size="14.00" fill="#000000">gini = 0.0</text>
<text text-anchor="start" x="1093.1274" y="-369.8" font-family="Helvetica,sans-Serif" font-size="14.00" fill="#000000">samples = 1</text>
<text text-anchor="start" x="1090.7861" y="-355.8" font-family="Helvetica,sans-Serif" font-size="14.00" fill="#000000">value = [1, 0]</text>
<text text-anchor="start" x="1103.2446" y="-341.8" font-family="Helvetica,sans-Serif" font-size="14.00" fill="#000000">class = 0</text>
</g>
<!-- 30&#45;&gt;42 -->
<g id="edge42" class="edge">
<title>30&#45;&gt;42</title>
<path fill="none" stroke="#000000" d="M1131.0635,-441.7677C1131.0635,-431.3338 1131.0635,-420.0174 1131.0635,-409.4215"/>
<polygon fill="#000000" stroke="#000000" points="1134.5636,-409.1252 1131.0635,-399.1252 1127.5636,-409.1252 1134.5636,-409.1252"/>
</g>
<!-- 32 -->
<g id="node33" class="node">
<title>32</title>
<path fill="#399de5" fill-opacity="0.200000" stroke="#000000" d="M914.7395,-292C914.7395,-292 729.3874,-292 729.3874,-292 723.3874,-292 717.3874,-286 717.3874,-280 717.3874,-280 717.3874,-226 717.3874,-226 717.3874,-220 723.3874,-214 729.3874,-214 729.3874,-214 914.7395,-214 914.7395,-214 920.7395,-214 926.7395,-220 926.7395,-226 926.7395,-226 926.7395,-280 926.7395,-280 926.7395,-286 920.7395,-292 914.7395,-292"/>
<text text-anchor="start" x="725.2256" y="-276.8" font-family="Helvetica,sans-Serif" font-size="14.00" fill="#000000">Single Epithelial Cell Size ≤ 3.5</text>
<text text-anchor="start" x="785.6724" y="-262.8" font-family="Helvetica,sans-Serif" font-size="14.00" fill="#000000">gini = 0.494</text>
<text text-anchor="start" x="784.1274" y="-248.8" font-family="Helvetica,sans-Serif" font-size="14.00" fill="#000000">samples = 9</text>
<text text-anchor="start" x="781.7861" y="-234.8" font-family="Helvetica,sans-Serif" font-size="14.00" fill="#000000">value = [4, 5]</text>
<text text-anchor="start" x="794.2446" y="-220.8" font-family="Helvetica,sans-Serif" font-size="14.00" fill="#000000">class = 2</text>
</g>
<!-- 31&#45;&gt;32 -->
<g id="edge32" class="edge">
<title>31&#45;&gt;32</title>
<path fill="none" stroke="#000000" d="M941.2798,-328.0865C925.7262,-318.2903 908.9101,-307.699 892.9491,-297.6462"/>
<polygon fill="#000000" stroke="#000000" points="894.5101,-294.493 884.1832,-292.1252 890.7795,-300.4161 894.5101,-294.493"/>
</g>
<!-- 37 -->
<g id="node38" class="node">
<title>37</title>
<path fill="#399de5" fill-opacity="0.917647" stroke="#000000" d="M1087.7638,-292C1087.7638,-292 956.3632,-292 956.3632,-292 950.3632,-292 944.3632,-286 944.3632,-280 944.3632,-280 944.3632,-226 944.3632,-226 944.3632,-220 950.3632,-214 956.3632,-214 956.3632,-214 1087.7638,-214 1087.7638,-214 1093.7638,-214 1099.7638,-220 1099.7638,-226 1099.7638,-226 1099.7638,-280 1099.7638,-280 1099.7638,-286 1093.7638,-292 1087.7638,-292"/>
<text text-anchor="start" x="952.4634" y="-276.8" font-family="Helvetica,sans-Serif" font-size="14.00" fill="#000000">Bland Chromatin ≤ 3.5</text>
<text text-anchor="start" x="985.6724" y="-262.8" font-family="Helvetica,sans-Serif" font-size="14.00" fill="#000000">gini = 0.142</text>
<text text-anchor="start" x="980.2344" y="-248.8" font-family="Helvetica,sans-Serif" font-size="14.00" fill="#000000">samples = 13</text>
<text text-anchor="start" x="977.8931" y="-234.8" font-family="Helvetica,sans-Serif" font-size="14.00" fill="#000000">value = [1, 12]</text>
<text text-anchor="start" x="994.2446" y="-220.8" font-family="Helvetica,sans-Serif" font-size="14.00" fill="#000000">class = 2</text>
</g>
<!-- 31&#45;&gt;37 -->
<g id="edge37" class="edge">
<title>31&#45;&gt;37</title>
<path fill="none" stroke="#000000" d="M1009.6022,-327.7677C1010.9755,-319.5277 1012.4406,-310.7372 1013.8658,-302.1859"/>
<polygon fill="#000000" stroke="#000000" points="1017.321,-302.744 1015.5127,-292.3046 1010.4162,-301.5932 1017.321,-302.744"/>
</g>
<!-- 33 -->
<g id="node34" class="node">
<title>33</title>
<path fill="#399de5" fill-opacity="0.800000" stroke="#000000" d="M756.1918,-178C756.1918,-178 591.9352,-178 591.9352,-178 585.9352,-178 579.9352,-172 579.9352,-166 579.9352,-166 579.9352,-112 579.9352,-112 579.9352,-106 585.9352,-100 591.9352,-100 591.9352,-100 756.1918,-100 756.1918,-100 762.1918,-100 768.1918,-106 768.1918,-112 768.1918,-112 768.1918,-166 768.1918,-166 768.1918,-172 762.1918,-178 756.1918,-178"/>
<text text-anchor="start" x="587.7495" y="-162.8" font-family="Helvetica,sans-Serif" font-size="14.00" fill="#000000">Uniformity of Cell Size ≤ 3.5</text>
<text text-anchor="start" x="637.6724" y="-148.8" font-family="Helvetica,sans-Serif" font-size="14.00" fill="#000000">gini = 0.278</text>
<text text-anchor="start" x="636.1274" y="-134.8" font-family="Helvetica,sans-Serif" font-size="14.00" fill="#000000">samples = 6</text>
<text text-anchor="start" x="633.7861" y="-120.8" font-family="Helvetica,sans-Serif" font-size="14.00" fill="#000000">value = [1, 5]</text>
<text text-anchor="start" x="646.2446" y="-106.8" font-family="Helvetica,sans-Serif" font-size="14.00" fill="#000000">class = 2</text>
</g>
<!-- 32&#45;&gt;33 -->
<g id="edge33" class="edge">
<title>32&#45;&gt;33</title>
<path fill="none" stroke="#000000" d="M771.1303,-213.7677C758.8525,-204.3105 745.6335,-194.1282 733.0229,-184.4147"/>
<polygon fill="#000000" stroke="#000000" points="734.8978,-181.441 724.8398,-178.1115 730.6262,-186.9866 734.8978,-181.441"/>
</g>
<!-- 36 -->
<g id="node37" class="node">
<title>36</title>
<path fill="#e58139" stroke="#000000" d="M871.1192,-171C871.1192,-171 799.0078,-171 799.0078,-171 793.0078,-171 787.0078,-165 787.0078,-159 787.0078,-159 787.0078,-119 787.0078,-119 787.0078,-113 793.0078,-107 799.0078,-107 799.0078,-107 871.1192,-107 871.1192,-107 877.1192,-107 883.1192,-113 883.1192,-119 883.1192,-119 883.1192,-159 883.1192,-159 883.1192,-165 877.1192,-171 871.1192,-171"/>
<text text-anchor="start" x="806.4585" y="-155.8" font-family="Helvetica,sans-Serif" font-size="14.00" fill="#000000">gini = 0.0</text>
<text text-anchor="start" x="797.1274" y="-141.8" font-family="Helvetica,sans-Serif" font-size="14.00" fill="#000000">samples = 3</text>
<text text-anchor="start" x="794.7861" y="-127.8" font-family="Helvetica,sans-Serif" font-size="14.00" fill="#000000">value = [3, 0]</text>
<text text-anchor="start" x="807.2446" y="-113.8" font-family="Helvetica,sans-Serif" font-size="14.00" fill="#000000">class = 0</text>
</g>
<!-- 32&#45;&gt;36 -->
<g id="edge36" class="edge">
<title>32&#45;&gt;36</title>
<path fill="none" stroke="#000000" d="M826.5373,-213.7677C827.7396,-203.2251 829.0445,-191.7816 830.2637,-181.0907"/>
<polygon fill="#000000" stroke="#000000" points="833.7444,-181.4574 831.4001,-171.1252 826.7895,-180.6642 833.7444,-181.4574"/>
</g>
<!-- 34 -->
<g id="node35" class="node">
<title>34</title>
<path fill="#399de5" stroke="#000000" d="M693.1192,-64C693.1192,-64 621.0078,-64 621.0078,-64 615.0078,-64 609.0078,-58 609.0078,-52 609.0078,-52 609.0078,-12 609.0078,-12 609.0078,-6 615.0078,0 621.0078,0 621.0078,0 693.1192,0 693.1192,0 699.1192,0 705.1192,-6 705.1192,-12 705.1192,-12 705.1192,-52 705.1192,-52 705.1192,-58 699.1192,-64 693.1192,-64"/>
<text text-anchor="start" x="628.4585" y="-48.8" font-family="Helvetica,sans-Serif" font-size="14.00" fill="#000000">gini = 0.0</text>
<text text-anchor="start" x="619.1274" y="-34.8" font-family="Helvetica,sans-Serif" font-size="14.00" fill="#000000">samples = 5</text>
<text text-anchor="start" x="616.7861" y="-20.8" font-family="Helvetica,sans-Serif" font-size="14.00" fill="#000000">value = [0, 5]</text>
<text text-anchor="start" x="629.2446" y="-6.8" font-family="Helvetica,sans-Serif" font-size="14.00" fill="#000000">class = 2</text>
</g>
<!-- 33&#45;&gt;34 -->
<g id="edge34" class="edge">
<title>33&#45;&gt;34</title>
<path fill="none" stroke="#000000" d="M667.8298,-99.7647C666.5094,-91.4537 665.1102,-82.6472 663.773,-74.2305"/>
<polygon fill="#000000" stroke="#000000" points="667.2079,-73.5438 662.182,-64.2169 660.2946,-74.6422 667.2079,-73.5438"/>
</g>
<!-- 35 -->
<g id="node36" class="node">
<title>35</title>
<path fill="#e58139" stroke="#000000" d="M808.1192,-64C808.1192,-64 736.0078,-64 736.0078,-64 730.0078,-64 724.0078,-58 724.0078,-52 724.0078,-52 724.0078,-12 724.0078,-12 724.0078,-6 730.0078,0 736.0078,0 736.0078,0 808.1192,0 808.1192,0 814.1192,0 820.1192,-6 820.1192,-12 820.1192,-12 820.1192,-52 820.1192,-52 820.1192,-58 814.1192,-64 808.1192,-64"/>
<text text-anchor="start" x="743.4585" y="-48.8" font-family="Helvetica,sans-Serif" font-size="14.00" fill="#000000">gini = 0.0</text>
<text text-anchor="start" x="734.1274" y="-34.8" font-family="Helvetica,sans-Serif" font-size="14.00" fill="#000000">samples = 1</text>
<text text-anchor="start" x="731.7861" y="-20.8" font-family="Helvetica,sans-Serif" font-size="14.00" fill="#000000">value = [1, 0]</text>
<text text-anchor="start" x="744.2446" y="-6.8" font-family="Helvetica,sans-Serif" font-size="14.00" fill="#000000">class = 0</text>
</g>
<!-- 33&#45;&gt;35 -->
<g id="edge35" class="edge">
<title>33&#45;&gt;35</title>
<path fill="none" stroke="#000000" d="M709.9986,-99.7647C718.3634,-90.6317 727.2762,-80.9004 735.661,-71.7456"/>
<polygon fill="#000000" stroke="#000000" points="738.3833,-73.9553 742.5564,-64.2169 733.2212,-69.2273 738.3833,-73.9553"/>
</g>
<!-- 38 -->
<g id="node39" class="node">
<title>38</title>
<path fill="transparent" stroke="#000000" d="M1080.1807,-178C1080.1807,-178 937.9462,-178 937.9462,-178 931.9462,-178 925.9462,-172 925.9462,-166 925.9462,-166 925.9462,-112 925.9462,-112 925.9462,-106 931.9462,-100 937.9462,-100 937.9462,-100 1080.1807,-100 1080.1807,-100 1086.1807,-100 1092.1807,-106 1092.1807,-112 1092.1807,-112 1092.1807,-166 1092.1807,-166 1092.1807,-172 1086.1807,-178 1080.1807,-178"/>
<text text-anchor="start" x="934.0049" y="-162.8" font-family="Helvetica,sans-Serif" font-size="14.00" fill="#000000">Marginal Adhesion ≤ 4.0</text>
<text text-anchor="start" x="980.4585" y="-148.8" font-family="Helvetica,sans-Serif" font-size="14.00" fill="#000000">gini = 0.5</text>
<text text-anchor="start" x="971.1274" y="-134.8" font-family="Helvetica,sans-Serif" font-size="14.00" fill="#000000">samples = 2</text>
<text text-anchor="start" x="968.7861" y="-120.8" font-family="Helvetica,sans-Serif" font-size="14.00" fill="#000000">value = [1, 1]</text>
<text text-anchor="start" x="981.2446" y="-106.8" font-family="Helvetica,sans-Serif" font-size="14.00" fill="#000000">class = 0</text>
</g>
<!-- 37&#45;&gt;38 -->
<g id="edge38" class="edge">
<title>37&#45;&gt;38</title>
<path fill="none" stroke="#000000" d="M1017.5896,-213.7677C1016.6602,-205.6172 1015.6693,-196.9283 1014.7042,-188.4649"/>
<polygon fill="#000000" stroke="#000000" points="1018.1561,-187.8437 1013.5456,-178.3046 1011.2012,-188.6368 1018.1561,-187.8437"/>
</g>
<!-- 41 -->
<g id="node42" class="node">
<title>41</title>
<path fill="#399de5" stroke="#000000" d="M1201.8725,-171C1201.8725,-171 1122.2544,-171 1122.2544,-171 1116.2544,-171 1110.2544,-165 1110.2544,-159 1110.2544,-159 1110.2544,-119 1110.2544,-119 1110.2544,-113 1116.2544,-107 1122.2544,-107 1122.2544,-107 1201.8725,-107 1201.8725,-107 1207.8725,-107 1213.8725,-113 1213.8725,-119 1213.8725,-119 1213.8725,-159 1213.8725,-159 1213.8725,-165 1207.8725,-171 1201.8725,-171"/>
<text text-anchor="start" x="1133.4585" y="-155.8" font-family="Helvetica,sans-Serif" font-size="14.00" fill="#000000">gini = 0.0</text>
<text text-anchor="start" x="1120.7505" y="-141.8" font-family="Helvetica,sans-Serif" font-size="14.00" fill="#000000">samples = 11</text>
<text text-anchor="start" x="1118.4092" y="-127.8" font-family="Helvetica,sans-Serif" font-size="14.00" fill="#000000">value = [0, 11]</text>
<text text-anchor="start" x="1134.2446" y="-113.8" font-family="Helvetica,sans-Serif" font-size="14.00" fill="#000000">class = 2</text>
</g>
<!-- 37&#45;&gt;41 -->
<g id="edge41" class="edge">
<title>37&#45;&gt;41</title>
<path fill="none" stroke="#000000" d="M1070.2435,-213.7677C1084.6587,-202.0296 1100.4456,-189.1745 1114.8012,-177.485"/>
<polygon fill="#000000" stroke="#000000" points="1117.0671,-180.1535 1122.6115,-171.1252 1112.6471,-174.7255 1117.0671,-180.1535"/>
</g>
<!-- 39 -->
<g id="node40" class="node">
<title>39</title>
<path fill="#399de5" stroke="#000000" d="M971.1192,-64C971.1192,-64 899.0078,-64 899.0078,-64 893.0078,-64 887.0078,-58 887.0078,-52 887.0078,-52 887.0078,-12 887.0078,-12 887.0078,-6 893.0078,0 899.0078,0 899.0078,0 971.1192,0 971.1192,0 977.1192,0 983.1192,-6 983.1192,-12 983.1192,-12 983.1192,-52 983.1192,-52 983.1192,-58 977.1192,-64 971.1192,-64"/>
<text text-anchor="start" x="906.4585" y="-48.8" font-family="Helvetica,sans-Serif" font-size="14.00" fill="#000000">gini = 0.0</text>
<text text-anchor="start" x="897.1274" y="-34.8" font-family="Helvetica,sans-Serif" font-size="14.00" fill="#000000">samples = 1</text>
<text text-anchor="start" x="894.7861" y="-20.8" font-family="Helvetica,sans-Serif" font-size="14.00" fill="#000000">value = [0, 1]</text>
<text text-anchor="start" x="907.2446" y="-6.8" font-family="Helvetica,sans-Serif" font-size="14.00" fill="#000000">class = 2</text>
</g>
<!-- 38&#45;&gt;39 -->
<g id="edge39" class="edge">
<title>38&#45;&gt;39</title>
<path fill="none" stroke="#000000" d="M981.9288,-99.7647C975.802,-90.9057 969.2859,-81.4838 963.122,-72.571"/>
<polygon fill="#000000" stroke="#000000" points="965.9111,-70.4507 957.3443,-64.2169 960.1538,-74.4324 965.9111,-70.4507"/>
</g>
<!-- 40 -->
<g id="node41" class="node">
<title>40</title>
<path fill="#e58139" stroke="#000000" d="M1086.1192,-64C1086.1192,-64 1014.0078,-64 1014.0078,-64 1008.0078,-64 1002.0078,-58 1002.0078,-52 1002.0078,-52 1002.0078,-12 1002.0078,-12 1002.0078,-6 1008.0078,0 1014.0078,0 1014.0078,0 1086.1192,0 1086.1192,0 1092.1192,0 1098.1192,-6 1098.1192,-12 1098.1192,-12 1098.1192,-52 1098.1192,-52 1098.1192,-58 1092.1192,-64 1086.1192,-64"/>
<text text-anchor="start" x="1021.4585" y="-48.8" font-family="Helvetica,sans-Serif" font-size="14.00" fill="#000000">gini = 0.0</text>
<text text-anchor="start" x="1012.1274" y="-34.8" font-family="Helvetica,sans-Serif" font-size="14.00" fill="#000000">samples = 1</text>
<text text-anchor="start" x="1009.7861" y="-20.8" font-family="Helvetica,sans-Serif" font-size="14.00" fill="#000000">value = [1, 0]</text>
<text text-anchor="start" x="1022.2446" y="-6.8" font-family="Helvetica,sans-Serif" font-size="14.00" fill="#000000">class = 0</text>
</g>
<!-- 38&#45;&gt;40 -->
<g id="edge40" class="edge">
<title>38&#45;&gt;40</title>
<path fill="none" stroke="#000000" d="M1024.0976,-99.7647C1027.3521,-91.271 1030.805,-82.2599 1034.0941,-73.6762"/>
<polygon fill="#000000" stroke="#000000" points="1037.4088,-74.8072 1037.7187,-64.2169 1030.8723,-72.3025 1037.4088,-74.8072"/>
</g>
<!-- 44 -->
<g id="node45" class="node">
<title>44</title>
<path fill="#399de5" fill-opacity="0.874510" stroke="#000000" d="M1351.1807,-406C1351.1807,-406 1208.9462,-406 1208.9462,-406 1202.9462,-406 1196.9462,-400 1196.9462,-394 1196.9462,-394 1196.9462,-340 1196.9462,-340 1196.9462,-334 1202.9462,-328 1208.9462,-328 1208.9462,-328 1351.1807,-328 1351.1807,-328 1357.1807,-328 1363.1807,-334 1363.1807,-340 1363.1807,-340 1363.1807,-394 1363.1807,-394 1363.1807,-400 1357.1807,-406 1351.1807,-406"/>
<text text-anchor="start" x="1205.0049" y="-390.8" font-family="Helvetica,sans-Serif" font-size="14.00" fill="#000000">Marginal Adhesion ≤ 4.5</text>
<text text-anchor="start" x="1243.6724" y="-376.8" font-family="Helvetica,sans-Serif" font-size="14.00" fill="#000000">gini = 0.198</text>
<text text-anchor="start" x="1242.1274" y="-362.8" font-family="Helvetica,sans-Serif" font-size="14.00" fill="#000000">samples = 9</text>
<text text-anchor="start" x="1239.7861" y="-348.8" font-family="Helvetica,sans-Serif" font-size="14.00" fill="#000000">value = [1, 8]</text>
<text text-anchor="start" x="1252.2446" y="-334.8" font-family="Helvetica,sans-Serif" font-size="14.00" fill="#000000">class = 2</text>
</g>
<!-- 43&#45;&gt;44 -->
<g id="edge44" class="edge">
<title>43&#45;&gt;44</title>
<path fill="none" stroke="#000000" d="M1286.622,-441.7677C1285.9071,-433.6172 1285.1449,-424.9283 1284.4025,-416.4649"/>
<polygon fill="#000000" stroke="#000000" points="1287.8718,-415.9605 1283.5113,-406.3046 1280.8986,-416.5723 1287.8718,-415.9605"/>
</g>
<!-- 49 -->
<g id="node50" class="node">
<title>49</title>
<path fill="#399de5" stroke="#000000" d="M1473.4049,-399C1473.4049,-399 1392.7221,-399 1392.7221,-399 1386.7221,-399 1380.7221,-393 1380.7221,-387 1380.7221,-387 1380.7221,-347 1380.7221,-347 1380.7221,-341 1386.7221,-335 1392.7221,-335 1392.7221,-335 1473.4049,-335 1473.4049,-335 1479.4049,-335 1485.4049,-341 1485.4049,-347 1485.4049,-347 1485.4049,-387 1485.4049,-387 1485.4049,-393 1479.4049,-399 1473.4049,-399"/>
<text text-anchor="start" x="1404.4585" y="-383.8" font-family="Helvetica,sans-Serif" font-size="14.00" fill="#000000">gini = 0.0</text>
<text text-anchor="start" x="1391.2344" y="-369.8" font-family="Helvetica,sans-Serif" font-size="14.00" fill="#000000">samples = 22</text>
<text text-anchor="start" x="1388.8931" y="-355.8" font-family="Helvetica,sans-Serif" font-size="14.00" fill="#000000">value = [0, 22]</text>
<text text-anchor="start" x="1405.2446" y="-341.8" font-family="Helvetica,sans-Serif" font-size="14.00" fill="#000000">class = 2</text>
</g>
<!-- 43&#45;&gt;49 -->
<g id="edge49" class="edge">
<title>43&#45;&gt;49</title>
<path fill="none" stroke="#000000" d="M1339.276,-441.7677C1354.0001,-430.0296 1370.1252,-417.1745 1384.7884,-405.485"/>
<polygon fill="#000000" stroke="#000000" points="1387.1285,-408.0956 1392.7661,-399.1252 1382.7649,-402.6221 1387.1285,-408.0956"/>
</g>
<!-- 45 -->
<g id="node46" class="node">
<title>45</title>
<path fill="#399de5" stroke="#000000" d="M1279.1192,-285C1279.1192,-285 1207.0078,-285 1207.0078,-285 1201.0078,-285 1195.0078,-279 1195.0078,-273 1195.0078,-273 1195.0078,-233 1195.0078,-233 1195.0078,-227 1201.0078,-221 1207.0078,-221 1207.0078,-221 1279.1192,-221 1279.1192,-221 1285.1192,-221 1291.1192,-227 1291.1192,-233 1291.1192,-233 1291.1192,-273 1291.1192,-273 1291.1192,-279 1285.1192,-285 1279.1192,-285"/>
<text text-anchor="start" x="1214.4585" y="-269.8" font-family="Helvetica,sans-Serif" font-size="14.00" fill="#000000">gini = 0.0</text>
<text text-anchor="start" x="1205.1274" y="-255.8" font-family="Helvetica,sans-Serif" font-size="14.00" fill="#000000">samples = 7</text>
<text text-anchor="start" x="1202.7861" y="-241.8" font-family="Helvetica,sans-Serif" font-size="14.00" fill="#000000">value = [0, 7]</text>
<text text-anchor="start" x="1215.2446" y="-227.8" font-family="Helvetica,sans-Serif" font-size="14.00" fill="#000000">class = 2</text>
</g>
<!-- 44&#45;&gt;45 -->
<g id="edge45" class="edge">
<title>44&#45;&gt;45</title>
<path fill="none" stroke="#000000" d="M1267.3302,-327.7677C1263.8732,-317.1164 1260.1177,-305.5455 1256.6172,-294.7603"/>
<polygon fill="#000000" stroke="#000000" points="1259.9063,-293.5563 1253.4901,-285.1252 1253.2482,-295.7173 1259.9063,-293.5563"/>
</g>
<!-- 46 -->
<g id="node47" class="node">
<title>46</title>
<path fill="transparent" stroke="#000000" d="M1396.7228,-292C1396.7228,-292 1321.4042,-292 1321.4042,-292 1315.4042,-292 1309.4042,-286 1309.4042,-280 1309.4042,-280 1309.4042,-226 1309.4042,-226 1309.4042,-220 1315.4042,-214 1321.4042,-214 1321.4042,-214 1396.7228,-214 1396.7228,-214 1402.7228,-214 1408.7228,-220 1408.7228,-226 1408.7228,-226 1408.7228,-280 1408.7228,-280 1408.7228,-286 1402.7228,-292 1396.7228,-292"/>
<text text-anchor="start" x="1317.4839" y="-276.8" font-family="Helvetica,sans-Serif" font-size="14.00" fill="#000000">Mitoses ≤ 1.5</text>
<text text-anchor="start" x="1330.4585" y="-262.8" font-family="Helvetica,sans-Serif" font-size="14.00" fill="#000000">gini = 0.5</text>
<text text-anchor="start" x="1321.1274" y="-248.8" font-family="Helvetica,sans-Serif" font-size="14.00" fill="#000000">samples = 2</text>
<text text-anchor="start" x="1318.7861" y="-234.8" font-family="Helvetica,sans-Serif" font-size="14.00" fill="#000000">value = [1, 1]</text>
<text text-anchor="start" x="1331.2446" y="-220.8" font-family="Helvetica,sans-Serif" font-size="14.00" fill="#000000">class = 0</text>
</g>
<!-- 44&#45;&gt;46 -->
<g id="edge46" class="edge">
<title>44&#45;&gt;46</title>
<path fill="none" stroke="#000000" d="M1307.2508,-327.7677C1313.2713,-319.0798 1319.7159,-309.7801 1325.9431,-300.794"/>
<polygon fill="#000000" stroke="#000000" points="1329.0069,-302.5176 1331.826,-292.3046 1323.2534,-298.5304 1329.0069,-302.5176"/>
</g>
<!-- 47 -->
<g id="node48" class="node">
<title>47</title>
<path fill="#399de5" stroke="#000000" d="M1377.1192,-171C1377.1192,-171 1305.0078,-171 1305.0078,-171 1299.0078,-171 1293.0078,-165 1293.0078,-159 1293.0078,-159 1293.0078,-119 1293.0078,-119 1293.0078,-113 1299.0078,-107 1305.0078,-107 1305.0078,-107 1377.1192,-107 1377.1192,-107 1383.1192,-107 1389.1192,-113 1389.1192,-119 1389.1192,-119 1389.1192,-159 1389.1192,-159 1389.1192,-165 1383.1192,-171 1377.1192,-171"/>
<text text-anchor="start" x="1312.4585" y="-155.8" font-family="Helvetica,sans-Serif" font-size="14.00" fill="#000000">gini = 0.0</text>
<text text-anchor="start" x="1303.1274" y="-141.8" font-family="Helvetica,sans-Serif" font-size="14.00" fill="#000000">samples = 1</text>
<text text-anchor="start" x="1300.7861" y="-127.8" font-family="Helvetica,sans-Serif" font-size="14.00" fill="#000000">value = [0, 1]</text>
<text text-anchor="start" x="1313.2446" y="-113.8" font-family="Helvetica,sans-Serif" font-size="14.00" fill="#000000">class = 2</text>
</g>
<!-- 46&#45;&gt;47 -->
<g id="edge47" class="edge">
<title>46&#45;&gt;47</title>
<path fill="none" stroke="#000000" d="M1352.8689,-213.7677C1351.2043,-203.2251 1349.3974,-191.7816 1347.7094,-181.0907"/>
<polygon fill="#000000" stroke="#000000" points="1351.1528,-180.4569 1346.1359,-171.1252 1344.2384,-181.5487 1351.1528,-180.4569"/>
</g>
<!-- 48 -->
<g id="node49" class="node">
<title>48</title>
<path fill="#e58139" stroke="#000000" d="M1492.1192,-171C1492.1192,-171 1420.0078,-171 1420.0078,-171 1414.0078,-171 1408.0078,-165 1408.0078,-159 1408.0078,-159 1408.0078,-119 1408.0078,-119 1408.0078,-113 1414.0078,-107 1420.0078,-107 1420.0078,-107 1492.1192,-107 1492.1192,-107 1498.1192,-107 1504.1192,-113 1504.1192,-119 1504.1192,-119 1504.1192,-159 1504.1192,-159 1504.1192,-165 1498.1192,-171 1492.1192,-171"/>
<text text-anchor="start" x="1427.4585" y="-155.8" font-family="Helvetica,sans-Serif" font-size="14.00" fill="#000000">gini = 0.0</text>
<text text-anchor="start" x="1418.1274" y="-141.8" font-family="Helvetica,sans-Serif" font-size="14.00" fill="#000000">samples = 1</text>
<text text-anchor="start" x="1415.7861" y="-127.8" font-family="Helvetica,sans-Serif" font-size="14.00" fill="#000000">value = [1, 0]</text>
<text text-anchor="start" x="1428.2446" y="-113.8" font-family="Helvetica,sans-Serif" font-size="14.00" fill="#000000">class = 0</text>
</g>
<!-- 46&#45;&gt;48 -->
<g id="edge48" class="edge">
<title>46&#45;&gt;48</title>
<path fill="none" stroke="#000000" d="M1392.4454,-213.7677C1402.0631,-202.4643 1412.5622,-190.1252 1422.2083,-178.7885"/>
<polygon fill="#000000" stroke="#000000" points="1424.9141,-181.0095 1428.7289,-171.1252 1419.5828,-176.4732 1424.9141,-181.0095"/>
</g>
<!-- 51 -->
<g id="node52" class="node">
<title>51</title>
<path fill="#399de5" fill-opacity="0.776471" stroke="#000000" d="M1660.1074,-634C1660.1074,-634 1526.0195,-634 1526.0195,-634 1520.0195,-634 1514.0195,-628 1514.0195,-622 1514.0195,-622 1514.0195,-568 1514.0195,-568 1514.0195,-562 1520.0195,-556 1526.0195,-556 1526.0195,-556 1660.1074,-556 1660.1074,-556 1666.1074,-556 1672.1074,-562 1672.1074,-568 1672.1074,-568 1672.1074,-622 1672.1074,-622 1672.1074,-628 1666.1074,-634 1660.1074,-634"/>
<text text-anchor="start" x="1522.0415" y="-618.8" font-family="Helvetica,sans-Serif" font-size="14.00" fill="#000000">Clump Thickness ≤ 7.0</text>
<text text-anchor="start" x="1556.6724" y="-604.8" font-family="Helvetica,sans-Serif" font-size="14.00" fill="#000000">gini = 0.298</text>
<text text-anchor="start" x="1551.7505" y="-590.8" font-family="Helvetica,sans-Serif" font-size="14.00" fill="#000000">samples = 11</text>
<text text-anchor="start" x="1552.7861" y="-576.8" font-family="Helvetica,sans-Serif" font-size="14.00" fill="#000000">value = [2, 9]</text>
<text text-anchor="start" x="1565.2446" y="-562.8" font-family="Helvetica,sans-Serif" font-size="14.00" fill="#000000">class = 2</text>
</g>
<!-- 50&#45;&gt;51 -->
<g id="edge51" class="edge">
<title>50&#45;&gt;51</title>
<path fill="none" stroke="#000000" d="M1593.0635,-669.7677C1593.0635,-661.6172 1593.0635,-652.9283 1593.0635,-644.4649"/>
<polygon fill="#000000" stroke="#000000" points="1596.5636,-644.3046 1593.0635,-634.3046 1589.5636,-644.3047 1596.5636,-644.3046"/>
</g>
<!-- 56 -->
<g id="node57" class="node">
<title>56</title>
<path fill="#399de5" fill-opacity="0.992157" stroke="#000000" d="M1870.7952,-634C1870.7952,-634 1745.3318,-634 1745.3318,-634 1739.3318,-634 1733.3318,-628 1733.3318,-622 1733.3318,-622 1733.3318,-568 1733.3318,-568 1733.3318,-562 1739.3318,-556 1745.3318,-556 1745.3318,-556 1870.7952,-556 1870.7952,-556 1876.7952,-556 1882.7952,-562 1882.7952,-568 1882.7952,-568 1882.7952,-622 1882.7952,-622 1882.7952,-628 1876.7952,-634 1870.7952,-634"/>
<text text-anchor="start" x="1741.1978" y="-618.8" font-family="Helvetica,sans-Serif" font-size="14.00" fill="#000000">Normal Nucleoli ≤ 2.5</text>
<text text-anchor="start" x="1771.6724" y="-604.8" font-family="Helvetica,sans-Serif" font-size="14.00" fill="#000000">gini = 0.012</text>
<text text-anchor="start" x="1762.3413" y="-590.8" font-family="Helvetica,sans-Serif" font-size="14.00" fill="#000000">samples = 163</text>
<text text-anchor="start" x="1760" y="-576.8" font-family="Helvetica,sans-Serif" font-size="14.00" fill="#000000">value = [1, 162]</text>
<text text-anchor="start" x="1780.2446" y="-562.8" font-family="Helvetica,sans-Serif" font-size="14.00" fill="#000000">class = 2</text>
</g>
<!-- 50&#45;&gt;56 -->
<g id="edge56" class="edge">
<title>50&#45;&gt;56</title>
<path fill="none" stroke="#000000" d="M1666.7535,-669.9272C1685.6426,-659.9115 1706.0823,-649.0738 1725.3914,-638.8354"/>
<polygon fill="#000000" stroke="#000000" points="1727.2745,-641.7986 1734.4698,-634.0218 1723.9953,-635.6142 1727.2745,-641.7986"/>
</g>
<!-- 52 -->
<g id="node53" class="node">
<title>52</title>
<path fill="transparent" stroke="#000000" d="M1588.7228,-520C1588.7228,-520 1513.4042,-520 1513.4042,-520 1507.4042,-520 1501.4042,-514 1501.4042,-508 1501.4042,-508 1501.4042,-454 1501.4042,-454 1501.4042,-448 1507.4042,-442 1513.4042,-442 1513.4042,-442 1588.7228,-442 1588.7228,-442 1594.7228,-442 1600.7228,-448 1600.7228,-454 1600.7228,-454 1600.7228,-508 1600.7228,-508 1600.7228,-514 1594.7228,-520 1588.7228,-520"/>
<text text-anchor="start" x="1509.4839" y="-504.8" font-family="Helvetica,sans-Serif" font-size="14.00" fill="#000000">Mitoses ≤ 2.0</text>
<text text-anchor="start" x="1522.4585" y="-490.8" font-family="Helvetica,sans-Serif" font-size="14.00" fill="#000000">gini = 0.5</text>
<text text-anchor="start" x="1513.1274" y="-476.8" font-family="Helvetica,sans-Serif" font-size="14.00" fill="#000000">samples = 4</text>
<text text-anchor="start" x="1510.7861" y="-462.8" font-family="Helvetica,sans-Serif" font-size="14.00" fill="#000000">value = [2, 2]</text>
<text text-anchor="start" x="1523.2446" y="-448.8" font-family="Helvetica,sans-Serif" font-size="14.00" fill="#000000">class = 0</text>
</g>
<!-- 51&#45;&gt;52 -->
<g id="edge52" class="edge">
<title>51&#45;&gt;52</title>
<path fill="none" stroke="#000000" d="M1578.6095,-555.7677C1575.5407,-547.4381 1572.2647,-538.5461 1569.0819,-529.9072"/>
<polygon fill="#000000" stroke="#000000" points="1572.2855,-528.4781 1565.5441,-520.3046 1565.7171,-530.8981 1572.2855,-528.4781"/>
</g>
<!-- 55 -->
<g id="node56" class="node">
<title>55</title>
<path fill="#399de5" stroke="#000000" d="M1703.1192,-513C1703.1192,-513 1631.0078,-513 1631.0078,-513 1625.0078,-513 1619.0078,-507 1619.0078,-501 1619.0078,-501 1619.0078,-461 1619.0078,-461 1619.0078,-455 1625.0078,-449 1631.0078,-449 1631.0078,-449 1703.1192,-449 1703.1192,-449 1709.1192,-449 1715.1192,-455 1715.1192,-461 1715.1192,-461 1715.1192,-501 1715.1192,-501 1715.1192,-507 1709.1192,-513 1703.1192,-513"/>
<text text-anchor="start" x="1638.4585" y="-497.8" font-family="Helvetica,sans-Serif" font-size="14.00" fill="#000000">gini = 0.0</text>
<text text-anchor="start" x="1629.1274" y="-483.8" font-family="Helvetica,sans-Serif" font-size="14.00" fill="#000000">samples = 7</text>
<text text-anchor="start" x="1626.7861" y="-469.8" font-family="Helvetica,sans-Serif" font-size="14.00" fill="#000000">value = [0, 7]</text>
<text text-anchor="start" x="1639.2446" y="-455.8" font-family="Helvetica,sans-Serif" font-size="14.00" fill="#000000">class = 2</text>
</g>
<!-- 51&#45;&gt;55 -->
<g id="edge55" class="edge">
<title>51&#45;&gt;55</title>
<path fill="none" stroke="#000000" d="M1618.5301,-555.7677C1625.6557,-544.7904 1633.4154,-532.8362 1640.5974,-521.772"/>
<polygon fill="#000000" stroke="#000000" points="1643.7013,-523.4187 1646.2103,-513.1252 1637.8298,-519.6073 1643.7013,-523.4187"/>
</g>
<!-- 53 -->
<g id="node54" class="node">
<title>53</title>
<path fill="#e58139" stroke="#000000" d="M1587.1192,-399C1587.1192,-399 1515.0078,-399 1515.0078,-399 1509.0078,-399 1503.0078,-393 1503.0078,-387 1503.0078,-387 1503.0078,-347 1503.0078,-347 1503.0078,-341 1509.0078,-335 1515.0078,-335 1515.0078,-335 1587.1192,-335 1587.1192,-335 1593.1192,-335 1599.1192,-341 1599.1192,-347 1599.1192,-347 1599.1192,-387 1599.1192,-387 1599.1192,-393 1593.1192,-399 1587.1192,-399"/>
<text text-anchor="start" x="1522.4585" y="-383.8" font-family="Helvetica,sans-Serif" font-size="14.00" fill="#000000">gini = 0.0</text>
<text text-anchor="start" x="1513.1274" y="-369.8" font-family="Helvetica,sans-Serif" font-size="14.00" fill="#000000">samples = 2</text>
<text text-anchor="start" x="1510.7861" y="-355.8" font-family="Helvetica,sans-Serif" font-size="14.00" fill="#000000">value = [2, 0]</text>
<text text-anchor="start" x="1523.2446" y="-341.8" font-family="Helvetica,sans-Serif" font-size="14.00" fill="#000000">class = 0</text>
</g>
<!-- 52&#45;&gt;53 -->
<g id="edge53" class="edge">
<title>52&#45;&gt;53</title>
<path fill="none" stroke="#000000" d="M1551.0635,-441.7677C1551.0635,-431.3338 1551.0635,-420.0174 1551.0635,-409.4215"/>
<polygon fill="#000000" stroke="#000000" points="1554.5636,-409.1252 1551.0635,-399.1252 1547.5636,-409.1252 1554.5636,-409.1252"/>
</g>
<!-- 54 -->
<g id="node55" class="node">
<title>54</title>
<path fill="#399de5" stroke="#000000" d="M1702.1192,-399C1702.1192,-399 1630.0078,-399 1630.0078,-399 1624.0078,-399 1618.0078,-393 1618.0078,-387 1618.0078,-387 1618.0078,-347 1618.0078,-347 1618.0078,-341 1624.0078,-335 1630.0078,-335 1630.0078,-335 1702.1192,-335 1702.1192,-335 1708.1192,-335 1714.1192,-341 1714.1192,-347 1714.1192,-347 1714.1192,-387 1714.1192,-387 1714.1192,-393 1708.1192,-399 1702.1192,-399"/>
<text text-anchor="start" x="1637.4585" y="-383.8" font-family="Helvetica,sans-Serif" font-size="14.00" fill="#000000">gini = 0.0</text>
<text text-anchor="start" x="1628.1274" y="-369.8" font-family="Helvetica,sans-Serif" font-size="14.00" fill="#000000">samples = 2</text>
<text text-anchor="start" x="1625.7861" y="-355.8" font-family="Helvetica,sans-Serif" font-size="14.00" fill="#000000">value = [0, 2]</text>
<text text-anchor="start" x="1638.2446" y="-341.8" font-family="Helvetica,sans-Serif" font-size="14.00" fill="#000000">class = 2</text>
</g>
<!-- 52&#45;&gt;54 -->
<g id="edge54" class="edge">
<title>52&#45;&gt;54</title>
<path fill="none" stroke="#000000" d="M1590.64,-441.7677C1602.1521,-430.3556 1614.7292,-417.8878 1626.2556,-406.4618"/>
<polygon fill="#000000" stroke="#000000" points="1629.0186,-408.651 1633.6565,-399.1252 1624.0905,-403.6797 1629.0186,-408.651"/>
</g>
<!-- 57 -->
<g id="node58" class="node">
<title>57</title>
<path fill="#399de5" fill-opacity="0.960784" stroke="#000000" d="M1870.7952,-520C1870.7952,-520 1745.3318,-520 1745.3318,-520 1739.3318,-520 1733.3318,-514 1733.3318,-508 1733.3318,-508 1733.3318,-454 1733.3318,-454 1733.3318,-448 1739.3318,-442 1745.3318,-442 1745.3318,-442 1870.7952,-442 1870.7952,-442 1876.7952,-442 1882.7952,-448 1882.7952,-454 1882.7952,-454 1882.7952,-508 1882.7952,-508 1882.7952,-514 1876.7952,-520 1870.7952,-520"/>
<text text-anchor="start" x="1741.1978" y="-504.8" font-family="Helvetica,sans-Serif" font-size="14.00" fill="#000000">Normal Nucleoli ≤ 1.5</text>
<text text-anchor="start" x="1771.6724" y="-490.8" font-family="Helvetica,sans-Serif" font-size="14.00" fill="#000000">gini = 0.071</text>
<text text-anchor="start" x="1766.2344" y="-476.8" font-family="Helvetica,sans-Serif" font-size="14.00" fill="#000000">samples = 27</text>
<text text-anchor="start" x="1763.8931" y="-462.8" font-family="Helvetica,sans-Serif" font-size="14.00" fill="#000000">value = [1, 26]</text>
<text text-anchor="start" x="1780.2446" y="-448.8" font-family="Helvetica,sans-Serif" font-size="14.00" fill="#000000">class = 2</text>
</g>
<!-- 56&#45;&gt;57 -->
<g id="edge57" class="edge">
<title>56&#45;&gt;57</title>
<path fill="none" stroke="#000000" d="M1808.0635,-555.7677C1808.0635,-547.6172 1808.0635,-538.9283 1808.0635,-530.4649"/>
<polygon fill="#000000" stroke="#000000" points="1811.5636,-530.3046 1808.0635,-520.3046 1804.5636,-530.3047 1811.5636,-530.3046"/>
</g>
<!-- 62 -->
<g id="node63" class="node">
<title>62</title>
<path fill="#399de5" stroke="#000000" d="M2001.1905,-513C2001.1905,-513 1912.9365,-513 1912.9365,-513 1906.9365,-513 1900.9365,-507 1900.9365,-501 1900.9365,-501 1900.9365,-461 1900.9365,-461 1900.9365,-455 1906.9365,-449 1912.9365,-449 1912.9365,-449 2001.1905,-449 2001.1905,-449 2007.1905,-449 2013.1905,-455 2013.1905,-461 2013.1905,-461 2013.1905,-501 2013.1905,-501 2013.1905,-507 2007.1905,-513 2001.1905,-513"/>
<text text-anchor="start" x="1928.4585" y="-497.8" font-family="Helvetica,sans-Serif" font-size="14.00" fill="#000000">gini = 0.0</text>
<text text-anchor="start" x="1911.3413" y="-483.8" font-family="Helvetica,sans-Serif" font-size="14.00" fill="#000000">samples = 136</text>
<text text-anchor="start" x="1909" y="-469.8" font-family="Helvetica,sans-Serif" font-size="14.00" fill="#000000">value = [0, 136]</text>
<text text-anchor="start" x="1929.2446" y="-455.8" font-family="Helvetica,sans-Serif" font-size="14.00" fill="#000000">class = 2</text>
</g>
<!-- 56&#45;&gt;62 -->
<g id="edge62" class="edge">
<title>56&#45;&gt;62</title>
<path fill="none" stroke="#000000" d="M1859.3408,-555.7677C1874.6827,-544.0296 1891.4845,-531.1745 1906.7629,-519.485"/>
<polygon fill="#000000" stroke="#000000" points="1909.26,-521.9814 1915.0753,-513.1252 1905.0064,-516.422 1909.26,-521.9814"/>
</g>
<!-- 58 -->
<g id="node59" class="node">
<title>58</title>
<path fill="#399de5" stroke="#000000" d="M1836.4049,-399C1836.4049,-399 1755.7221,-399 1755.7221,-399 1749.7221,-399 1743.7221,-393 1743.7221,-387 1743.7221,-387 1743.7221,-347 1743.7221,-347 1743.7221,-341 1749.7221,-335 1755.7221,-335 1755.7221,-335 1836.4049,-335 1836.4049,-335 1842.4049,-335 1848.4049,-341 1848.4049,-347 1848.4049,-347 1848.4049,-387 1848.4049,-387 1848.4049,-393 1842.4049,-399 1836.4049,-399"/>
<text text-anchor="start" x="1767.4585" y="-383.8" font-family="Helvetica,sans-Serif" font-size="14.00" fill="#000000">gini = 0.0</text>
<text text-anchor="start" x="1754.2344" y="-369.8" font-family="Helvetica,sans-Serif" font-size="14.00" fill="#000000">samples = 22</text>
<text text-anchor="start" x="1751.8931" y="-355.8" font-family="Helvetica,sans-Serif" font-size="14.00" fill="#000000">value = [0, 22]</text>
<text text-anchor="start" x="1768.2446" y="-341.8" font-family="Helvetica,sans-Serif" font-size="14.00" fill="#000000">class = 2</text>
</g>
<!-- 57&#45;&gt;58 -->
<g id="edge58" class="edge">
<title>57&#45;&gt;58</title>
<path fill="none" stroke="#000000" d="M1803.9338,-441.7677C1802.824,-431.2251 1801.6194,-419.7816 1800.4941,-409.0907"/>
<polygon fill="#000000" stroke="#000000" points="1803.9728,-408.7038 1799.4451,-399.1252 1797.0112,-409.4367 1803.9728,-408.7038"/>
</g>
<!-- 59 -->
<g id="node60" class="node">
<title>59</title>
<path fill="#399de5" fill-opacity="0.749020" stroke="#000000" d="M2009.7638,-406C2009.7638,-406 1878.3632,-406 1878.3632,-406 1872.3632,-406 1866.3632,-400 1866.3632,-394 1866.3632,-394 1866.3632,-340 1866.3632,-340 1866.3632,-334 1872.3632,-328 1878.3632,-328 1878.3632,-328 2009.7638,-328 2009.7638,-328 2015.7638,-328 2021.7638,-334 2021.7638,-340 2021.7638,-340 2021.7638,-394 2021.7638,-394 2021.7638,-400 2015.7638,-406 2009.7638,-406"/>
<text text-anchor="start" x="1874.4634" y="-390.8" font-family="Helvetica,sans-Serif" font-size="14.00" fill="#000000">Bland Chromatin ≤ 5.5</text>
<text text-anchor="start" x="1911.5654" y="-376.8" font-family="Helvetica,sans-Serif" font-size="14.00" fill="#000000">gini = 0.32</text>
<text text-anchor="start" x="1906.1274" y="-362.8" font-family="Helvetica,sans-Serif" font-size="14.00" fill="#000000">samples = 5</text>
<text text-anchor="start" x="1903.7861" y="-348.8" font-family="Helvetica,sans-Serif" font-size="14.00" fill="#000000">value = [1, 4]</text>
<text text-anchor="start" x="1916.2446" y="-334.8" font-family="Helvetica,sans-Serif" font-size="14.00" fill="#000000">class = 2</text>
</g>
<!-- 57&#45;&gt;59 -->
<g id="edge59" class="edge">
<title>57&#45;&gt;59</title>
<path fill="none" stroke="#000000" d="M1854.867,-441.7677C1865.9793,-432.4529 1877.9308,-422.4347 1889.3608,-412.8538"/>
<polygon fill="#000000" stroke="#000000" points="1891.7584,-415.411 1897.1737,-406.3046 1887.2616,-410.0464 1891.7584,-415.411"/>
</g>
<!-- 60 -->
<g id="node61" class="node">
<title>60</title>
<path fill="#e58139" stroke="#000000" d="M1922.1192,-285C1922.1192,-285 1850.0078,-285 1850.0078,-285 1844.0078,-285 1838.0078,-279 1838.0078,-273 1838.0078,-273 1838.0078,-233 1838.0078,-233 1838.0078,-227 1844.0078,-221 1850.0078,-221 1850.0078,-221 1922.1192,-221 1922.1192,-221 1928.1192,-221 1934.1192,-227 1934.1192,-233 1934.1192,-233 1934.1192,-273 1934.1192,-273 1934.1192,-279 1928.1192,-285 1922.1192,-285"/>
<text text-anchor="start" x="1857.4585" y="-269.8" font-family="Helvetica,sans-Serif" font-size="14.00" fill="#000000">gini = 0.0</text>
<text text-anchor="start" x="1848.1274" y="-255.8" font-family="Helvetica,sans-Serif" font-size="14.00" fill="#000000">samples = 1</text>
<text text-anchor="start" x="1845.7861" y="-241.8" font-family="Helvetica,sans-Serif" font-size="14.00" fill="#000000">value = [1, 0]</text>
<text text-anchor="start" x="1858.2446" y="-227.8" font-family="Helvetica,sans-Serif" font-size="14.00" fill="#000000">class = 0</text>
</g>
<!-- 59&#45;&gt;60 -->
<g id="edge60" class="edge">
<title>59&#45;&gt;60</title>
<path fill="none" stroke="#000000" d="M1924.1032,-327.7677C1918.5735,-316.8991 1912.5567,-305.0729 1906.9745,-294.1009"/>
<polygon fill="#000000" stroke="#000000" points="1910.062,-292.4509 1902.4079,-285.1252 1903.823,-295.6251 1910.062,-292.4509"/>
</g>
<!-- 61 -->
<g id="node62" class="node">
<title>61</title>
<path fill="#399de5" stroke="#000000" d="M2037.1192,-285C2037.1192,-285 1965.0078,-285 1965.0078,-285 1959.0078,-285 1953.0078,-279 1953.0078,-273 1953.0078,-273 1953.0078,-233 1953.0078,-233 1953.0078,-227 1959.0078,-221 1965.0078,-221 1965.0078,-221 2037.1192,-221 2037.1192,-221 2043.1192,-221 2049.1192,-227 2049.1192,-233 2049.1192,-233 2049.1192,-273 2049.1192,-273 2049.1192,-279 2043.1192,-285 2037.1192,-285"/>
<text text-anchor="start" x="1972.4585" y="-269.8" font-family="Helvetica,sans-Serif" font-size="14.00" fill="#000000">gini = 0.0</text>
<text text-anchor="start" x="1963.1274" y="-255.8" font-family="Helvetica,sans-Serif" font-size="14.00" fill="#000000">samples = 4</text>
<text text-anchor="start" x="1960.7861" y="-241.8" font-family="Helvetica,sans-Serif" font-size="14.00" fill="#000000">value = [0, 4]</text>
<text text-anchor="start" x="1973.2446" y="-227.8" font-family="Helvetica,sans-Serif" font-size="14.00" fill="#000000">class = 2</text>
</g>
<!-- 59&#45;&gt;61 -->
<g id="edge61" class="edge">
<title>59&#45;&gt;61</title>
<path fill="none" stroke="#000000" d="M1963.6796,-327.7677C1969.1139,-316.8991 1975.027,-305.0729 1980.513,-294.1009"/>
<polygon fill="#000000" stroke="#000000" points="1983.6592,-295.6347 1985.0009,-285.1252 1977.3982,-292.5042 1983.6592,-295.6347"/>
</g>
</g>
</svg>
