<?xml version="1.0" encoding="UTF-8" standalone="no"?>
<!DOCTYPE svg PUBLIC "-//W3C//DTD SVG 1.1//EN"
 "http://www.w3.org/Graphics/SVG/1.1/DTD/svg11.dtd">
<!-- Generated by graphviz version 2.38.0 (20140413.2041)
 -->
<!-- Title: Tree Pages: 1 -->
<svg width="528pt" height="314pt"
 viewBox="0.00 0.00 528.00 314.00" xmlns="http://www.w3.org/2000/svg" xmlns:xlink="http://www.w3.org/1999/xlink">
<g id="graph0" class="graph" transform="scale(1 1) rotate(0) translate(4 310)">
<title>Tree</title>
<polygon fill="white" stroke="none" points="-4,4 -4,-310 524,-310 524,4 -4,4"/>
<!-- 0 -->
<g id="node1" class="node"><title>0</title>
<path fill="#e58139" fill-opacity="0.478431" stroke="black" d="M339,-306C339,-306 172,-306 172,-306 166,-306 160,-300 160,-294 160,-294 160,-235 160,-235 160,-229 166,-223 172,-223 172,-223 339,-223 339,-223 345,-223 351,-229 351,-235 351,-235 351,-294 351,-294 351,-300 345,-306 339,-306"/>
<text text-anchor="start" x="168" y="-290.8" font-family="Helvetica,sans-Serif" font-size="14.00">Uniformity of Cell Size ≤ 2.5</text>
<text text-anchor="start" x="218" y="-275.8" font-family="Helvetica,sans-Serif" font-size="14.00">gini = 0.451</text>
<text text-anchor="start" x="208" y="-260.8" font-family="Helvetica,sans-Serif" font-size="14.00">samples = 478</text>
<text text-anchor="start" x="198.5" y="-245.8" font-family="Helvetica,sans-Serif" font-size="14.00">value = [314, 164]</text>
<text text-anchor="start" x="226.5" y="-230.8" font-family="Helvetica,sans-Serif" font-size="14.00">class = 0</text>
</g>
<!-- 1 -->
<g id="node2" class="node"><title>1</title>
<path fill="#e58139" fill-opacity="0.976471" stroke="black" d="M215,-187C215,-187 114,-187 114,-187 108,-187 102,-181 102,-175 102,-175 102,-116 102,-116 102,-110 108,-104 114,-104 114,-104 215,-104 215,-104 221,-104 227,-110 227,-116 227,-116 227,-175 227,-175 227,-181 221,-187 215,-187"/>
<text text-anchor="start" x="110" y="-171.8" font-family="Helvetica,sans-Serif" font-size="14.00">Bare Nuclei ≤ 6.0</text>
<text text-anchor="start" x="127" y="-156.8" font-family="Helvetica,sans-Serif" font-size="14.00">gini = 0.047</text>
<text text-anchor="start" x="117" y="-141.8" font-family="Helvetica,sans-Serif" font-size="14.00">samples = 292</text>
<text text-anchor="start" x="116" y="-126.8" font-family="Helvetica,sans-Serif" font-size="14.00">value = [285, 7]</text>
<text text-anchor="start" x="135.5" y="-111.8" font-family="Helvetica,sans-Serif" font-size="14.00">class = 0</text>
</g>
<!-- 0&#45;&gt;1 -->
<g id="edge1" class="edge"><title>0&#45;&gt;1</title>
<path fill="none" stroke="black" d="M223.928,-222.907C216.94,-213.923 209.467,-204.315 202.261,-195.05"/>
<polygon fill="black" stroke="black" points="204.918,-192.766 196.016,-187.021 199.393,-197.063 204.918,-192.766"/>
<text text-anchor="middle" x="192.915" y="-208.128" font-family="Helvetica,sans-Serif" font-size="14.00">True</text>
</g>
<!-- 4 -->
<g id="node5" class="node"><title>4</title>
<path fill="#399de5" fill-opacity="0.815686" stroke="black" d="M438,-187C438,-187 257,-187 257,-187 251,-187 245,-181 245,-175 245,-175 245,-116 245,-116 245,-110 251,-104 257,-104 257,-104 438,-104 438,-104 444,-104 450,-110 450,-116 450,-116 450,-175 450,-175 450,-181 444,-187 438,-187"/>
<text text-anchor="start" x="253" y="-171.8" font-family="Helvetica,sans-Serif" font-size="14.00">Uniformity of Cell Shape ≤ 3.5</text>
<text text-anchor="start" x="310" y="-156.8" font-family="Helvetica,sans-Serif" font-size="14.00">gini = 0.263</text>
<text text-anchor="start" x="300" y="-141.8" font-family="Helvetica,sans-Serif" font-size="14.00">samples = 186</text>
<text text-anchor="start" x="294.5" y="-126.8" font-family="Helvetica,sans-Serif" font-size="14.00">value = [29, 157]</text>
<text text-anchor="start" x="318.5" y="-111.8" font-family="Helvetica,sans-Serif" font-size="14.00">class = 2</text>
</g>
<!-- 0&#45;&gt;4 -->
<g id="edge4" class="edge"><title>0&#45;&gt;4</title>
<path fill="none" stroke="black" d="M287.419,-222.907C294.484,-213.923 302.039,-204.315 309.324,-195.05"/>
<polygon fill="black" stroke="black" points="312.208,-197.045 315.637,-187.021 306.705,-192.718 312.208,-197.045"/>
<text text-anchor="middle" x="318.607" y="-208.144" font-family="Helvetica,sans-Serif" font-size="14.00">False</text>
</g>
<!-- 2 -->
<g id="node3" class="node"><title>2</title>
<path fill="#e58139" fill-opacity="0.992157" stroke="black" d="M101,-68C101,-68 12,-68 12,-68 6,-68 0,-62 0,-56 0,-56 0,-12 0,-12 0,-6 6,-0 12,-0 12,-0 101,-0 101,-0 107,-0 113,-6 113,-12 113,-12 113,-56 113,-56 113,-62 107,-68 101,-68"/>
<text text-anchor="start" x="19" y="-52.8" font-family="Helvetica,sans-Serif" font-size="14.00">gini = 0.014</text>
<text text-anchor="start" x="9" y="-37.8" font-family="Helvetica,sans-Serif" font-size="14.00">samples = 287</text>
<text text-anchor="start" x="8" y="-22.8" font-family="Helvetica,sans-Serif" font-size="14.00">value = [285, 2]</text>
<text text-anchor="start" x="27.5" y="-7.8" font-family="Helvetica,sans-Serif" font-size="14.00">class = 0</text>
</g>
<!-- 1&#45;&gt;2 -->
<g id="edge2" class="edge"><title>1&#45;&gt;2</title>
<path fill="none" stroke="black" d="M124.285,-103.726C115.199,-94.5142 105.555,-84.7364 96.479,-75.5343"/>
<polygon fill="black" stroke="black" points="98.8575,-72.9615 89.3434,-68.2996 93.8737,-77.877 98.8575,-72.9615"/>
</g>
<!-- 3 -->
<g id="node4" class="node"><title>3</title>
<path fill="#399de5" stroke="black" d="M216,-68C216,-68 143,-68 143,-68 137,-68 131,-62 131,-56 131,-56 131,-12 131,-12 131,-6 137,-0 143,-0 143,-0 216,-0 216,-0 222,-0 228,-6 228,-12 228,-12 228,-56 228,-56 228,-62 222,-68 216,-68"/>
<text text-anchor="start" x="150.5" y="-52.8" font-family="Helvetica,sans-Serif" font-size="14.00">gini = 0.0</text>
<text text-anchor="start" x="140" y="-37.8" font-family="Helvetica,sans-Serif" font-size="14.00">samples = 5</text>
<text text-anchor="start" x="139" y="-22.8" font-family="Helvetica,sans-Serif" font-size="14.00">value = [0, 5]</text>
<text text-anchor="start" x="150.5" y="-7.8" font-family="Helvetica,sans-Serif" font-size="14.00">class = 2</text>
</g>
<!-- 1&#45;&gt;3 -->
<g id="edge3" class="edge"><title>1&#45;&gt;3</title>
<path fill="none" stroke="black" d="M170.085,-103.726C171.222,-95.4263 172.422,-86.6671 173.571,-78.2834"/>
<polygon fill="black" stroke="black" points="177.049,-78.6821 174.938,-68.2996 170.114,-77.732 177.049,-78.6821"/>
</g>
<!-- 5 -->
<g id="node6" class="node"><title>5</title>
<path fill="#e58139" fill-opacity="0.141176" stroke="black" d="M377,-68C377,-68 288,-68 288,-68 282,-68 276,-62 276,-56 276,-56 276,-12 276,-12 276,-6 282,-0 288,-0 288,-0 377,-0 377,-0 383,-0 389,-6 389,-12 389,-12 389,-56 389,-56 389,-62 383,-68 377,-68"/>
<text text-anchor="start" x="295" y="-52.8" font-family="Helvetica,sans-Serif" font-size="14.00">gini = 0.497</text>
<text text-anchor="start" x="289" y="-37.8" font-family="Helvetica,sans-Serif" font-size="14.00">samples = 39</text>
<text text-anchor="start" x="284" y="-22.8" font-family="Helvetica,sans-Serif" font-size="14.00">value = [21, 18]</text>
<text text-anchor="start" x="303.5" y="-7.8" font-family="Helvetica,sans-Serif" font-size="14.00">class = 0</text>
</g>
<!-- 4&#45;&gt;5 -->
<g id="edge5" class="edge"><title>4&#45;&gt;5</title>
<path fill="none" stroke="black" d="M341.915,-103.726C340.778,-95.4263 339.578,-86.6671 338.429,-78.2834"/>
<polygon fill="black" stroke="black" points="341.886,-77.732 337.062,-68.2996 334.951,-78.6821 341.886,-77.732"/>
</g>
<!-- 6 -->
<g id="node7" class="node"><title>6</title>
<path fill="#399de5" fill-opacity="0.941176" stroke="black" d="M508,-68C508,-68 419,-68 419,-68 413,-68 407,-62 407,-56 407,-56 407,-12 407,-12 407,-6 413,-0 419,-0 419,-0 508,-0 508,-0 514,-0 520,-6 520,-12 520,-12 520,-56 520,-56 520,-62 514,-68 508,-68"/>
<text text-anchor="start" x="426" y="-52.8" font-family="Helvetica,sans-Serif" font-size="14.00">gini = 0.103</text>
<text text-anchor="start" x="416" y="-37.8" font-family="Helvetica,sans-Serif" font-size="14.00">samples = 147</text>
<text text-anchor="start" x="415" y="-22.8" font-family="Helvetica,sans-Serif" font-size="14.00">value = [8, 139]</text>
<text text-anchor="start" x="434.5" y="-7.8" font-family="Helvetica,sans-Serif" font-size="14.00">class = 2</text>
</g>
<!-- 4&#45;&gt;6 -->
<g id="edge6" class="edge"><title>4&#45;&gt;6</title>
<path fill="none" stroke="black" d="M390.694,-103.726C400.55,-94.423 411.016,-84.5428 420.849,-75.2612"/>
<polygon fill="black" stroke="black" points="423.354,-77.7092 428.224,-68.2996 418.549,-72.6189 423.354,-77.7092"/>
</g>
</g>
</svg>
